{"asset":{"version":"2.0","generator":"VECTARY"},"nodes":[{"translation":[0,0,0],"scale":[0.001,0.001,0.001],"rotation":[-0.7071067811865475,0,0,0.7071067811865476],"name":"uploads_files_3437130_window 1","children":[1,2]},{"translation":[0,0,0],"scale":[1,1,1],"rotation":[0.7071067811865475,0,0,0.7071067811865476],"name":"Cube.009_Cube.013","mesh":0},{"translation":[0,0,0],"scale":[1,1,1],"rotation":[0.7071067811865475,0,0,0.7071067811865476],"name":"Cube_Cube.005","mesh":1}],"materials":[{"pbrMetallicRoughness":{"baseColorFactor":[0.36360389792055325,0.25084023643640047,0.11392093340633272,1],"metallicFactor":0,"roughnessFactor":1},"name":"Milky 1.5","normalTexture":{"index":0,"scale":0.1,"extensions":{"KHR_texture_transform":{"offset":[0,0],"scale":[5,5],"rotation":0}},"texCoord":0},"emissiveFactor":[0.2,0.2,0.2],"extensions":{"KHR_materials_transmission":{"transmissionFactor":1},"KHR_materials_ior":{"ior":1.5},"KHR_materials_volume":{"thicknessFactor":0.01}},"alphaMode":"OPAQUE","doubleSided":false},{"pbrMetallicRoughness":{"baseColorFactor":[1,1,1,1],"baseColorTexture":{"index":1,"extensions":{"KHR_texture_transform":{"offset":[0,0],"scale":[1,1],"rotation":0}},"texCoord":0},"metallicRoughnessTexture":{"index":3,"extensions":{"KHR_texture_transform":{"offset":[0,0],"scale":[1,1],"rotation":0}},"texCoord":0},"metallicFactor":0,"roughnessFactor":1},"name":"Wood","normalTexture":{"index":2,"scale":1,"extensions":{"KHR_texture_transform":{"offset":[0,0],"scale":[1,1],"rotation":0}},"texCoord":0},"emissiveFactor":[0,0,0],"extensions":{},"alphaMode":"OPAQUE","doubleSided":false}],"textures":[{"sampler":0,"source":0},{"sampler":0,"source":1},{"sampler":0,"source":2},{"sampler":0,"source":3}],"images":[{"uri":"2k-carpaint-normal.jpg","mimeType":"image/jpeg"},{"uri":"Wood_001_Color.jpg","mimeType":"image/jpeg"},{"uri":"Wood_001_NormalMap.jpg","mimeType":"image/jpeg"},{"uri":"metallicTexture&Wood_001_Roughness.jpg","mimeType":"image/jpeg"}],"samplers":[{"wrapS":10497,"wrapT":10497}],"meshes":[{"primitives":[{"mode":4,"attributes":{"POSITION":1,"NORMAL":2,"TEXCOORD_0":3},"material":0,"indices":0}]},{"primitives":[{"mode":4,"attributes":{"POSITION":5,"NORMAL":6,"TEXCOORD_0":7},"material":1,"indices":4}]}],"accessors":[{"bufferView":0,"byteOffset":0,"componentType":5125,"count":36,"type":"SCALAR"},{"bufferView":1,"byteOffset":0,"componentType":5126,"count":24,"max":[2.884186029434204,7.000009059906006,0.02191000059247017],"min":[-2.884186029434204,1.131680965423584,-0.02191000059247017],"type":"VEC3"},{"bufferView":2,"byteOffset":0,"componentType":5126,"count":24,"type":"VEC3"},{"bufferView":3,"byteOffset":0,"componentType":5126,"count":24,"type":"VEC2"},{"bufferView":4,"byteOffset":0,"componentType":5125,"count":708,"type":"SCALAR"},{"bufferView":5,"byteOffset":0,"componentType":5126,"count":432,"max":[3.1067728996276855,7.262128829956055,0.23472000658512115],"min":[-3.0991010665893555,1.005748987197876,-0.23472000658512115],"type":"VEC3"},{"bufferView":6,"byteOffset":0,"componentType":5126,"count":432,"type":"VEC3"},{"bufferView":7,"byteOffset":0,"componentType":5126,"count":432,"type":"VEC2"}],"bufferViews":[{"buffer":0,"byteOffset":0,"byteLength":144,"target":34963},{"buffer":0,"byteOffset":144,"byteLength":288,"target":34962},{"buffer":0,"byteOffset":432,"byteLength":288,"target":34962},{"buffer":0,"byteOffset":720,"byteLength":192,"target":34962},{"buffer":0,"byteOffset":912,"byteLength":2832,"target":34963},{"buffer":0,"byteOffset":3744,"byteLength":5184,"target":34962},{"buffer":0,"byteOffset":8928,"byteLength":5184,"target":34962},{"buffer":0,"byteOffset":14112,"byteLength":3456,"target":34962}],"scene":0,"scenes":[{"nodes":[0],"name":"Project Name"}],"extensionsUsed":["KHR_texture_transform","KHR_materials_ior","KHR_materials_volume","KHR_materials_transmission"],"buffers":[{"byteLength":17568,"uri":"ProjectName.bin"}]}