{"asset":{"version":"2.0","generator":"VECTARY"},"nodes":[{"translation":[0,0,0],"scale":[0.001,0.001,0.001],"rotation":[-0.7071067811865475,0,0,0.7071067811865476],"name":"Kitchen Cabinet_Tall_Lo Poly","children":[1]},{"translation":[0,0,0],"scale":[1,1,1],"rotation":[0.7071067811865475,0,0,0.7071067811865476],"name":"Buffer Object","mesh":0}],"materials":[{"pbrMetallicRoughness":{"baseColorFactor":[0.42590528570714575,0.09868919754109445,0.0055217448502396585,1],"metallicFactor":0,"roughnessFactor":0.2},"name":"Amelia","emissiveFactor":[0,0,0],"extensions":{},"alphaMode":"OPAQUE","doubleSided":false}],"meshes":[{"primitives":[{"mode":4,"attributes":{"POSITION":1,"NORMAL":2,"TEXCOORD_0":3},"material":0,"indices":0}]}],"accessors":[{"bufferView":0,"byteOffset":0,"componentType":5125,"count":381522,"type":"SCALAR"},{"bufferView":1,"byteOffset":0,"componentType":5126,"count":87341,"max":[55.65691375732422,208.2799072265625,12.39615535736084],"min":[-55.65691375732422,0,-48.00687789916992],"type":"VEC3"},{"bufferView":2,"byteOffset":0,"componentType":5126,"count":87341,"type":"VEC3"},{"bufferView":3,"byteOffset":0,"componentType":5126,"count":87341,"type":"VEC2"}],"bufferViews":[{"buffer":0,"byteOffset":0,"byteLength":1526088,"target":34963},{"buffer":0,"byteOffset":1526088,"byteLength":1048092,"target":34962},{"buffer":0,"byteOffset":2574180,"byteLength":1048092,"target":34962},{"buffer":0,"byteOffset":3622272,"byteLength":698728,"target":34962}],"scene":0,"scenes":[{"nodes":[0],"name":"Project Name"}],"extensionsUsed":["KHR_texture_transform"],"buffers":[{"byteLength":4321000,"uri":"ProjectName.bin"}]}