{"asset":{"version":"2.0","generator":"VECTARY"},"nodes":[{"translation":[0.6308465141916686,0.2635274862072584,1.2532141913053392],"scale":[0.001,0.001,0.001],"rotation":[-0.7071067811865475,0,0,0.7071067811865476],"name":"uploads_files_4117253_obj","children":[1,3,5,7,9]},{"translation":[0,0,0],"scale":[1,1,1],"rotation":[0,0,0,1],"name":"Mesh1 Model","children":[2]},{"translation":[0,0,0],"scale":[1,1,1],"rotation":[0.7071067811865475,0,0,0.7071067811865476],"name":"Buffer Object","mesh":0},{"translation":[0,0,0],"scale":[1,1,1],"rotation":[0,0,0,1],"name":"Mesh2 Model","children":[4]},{"translation":[0,0,0],"scale":[1,1,1],"rotation":[0.7071067811865475,0,0,0.7071067811865476],"name":"Buffer Object","mesh":1},{"translation":[0,0,0],"scale":[1,1,1],"rotation":[0,0,0,1],"name":"Mesh3 Model","children":[6]},{"translation":[0,0,0],"scale":[1,1,1],"rotation":[0.7071067811865475,0,0,0.7071067811865476],"name":"Buffer Object","mesh":2},{"translation":[0,0,0],"scale":[1,1,1],"rotation":[0,0,0,1],"name":"Mesh4 Model","children":[8]},{"translation":[0,0,0],"scale":[1,1,1],"rotation":[0.7071067811865475,0,0,0.7071067811865476],"name":"Buffer Object","mesh":3},{"translation":[0,0,0],"scale":[1,1,1],"rotation":[0,0,0,1],"name":"Mesh5 Model","children":[10]},{"translation":[0,0,0],"scale":[1,1,1],"rotation":[0.7071067811865475,0,0,0.7071067811865476],"name":"Buffer Object","mesh":4}],"materials":[{"pbrMetallicRoughness":{"baseColorFactor":[0.00455975492252602,0.026548682828472912,0.03561436968491877,1],"metallicRoughnessTexture":{"index":1,"extensions":{"KHR_texture_transform":{"offset":[0,0],"scale":[1,1],"rotation":0}},"texCoord":0},"metallicFactor":0,"roughnessFactor":1},"name":"Subsurface Textured","normalTexture":{"index":0,"scale":1,"extensions":{"KHR_texture_transform":{"offset":[0,0],"scale":[1,1],"rotation":0}},"texCoord":0},"emissiveFactor":[0,0,0],"extensions":{},"alphaMode":"OPAQUE","doubleSided":false},{"pbrMetallicRoughness":{"baseColorFactor":[0,0,0,1],"metallicFactor":0,"roughnessFactor":0.2},"name":"Hawaii Morning","emissiveFactor":[0,0,0],"extensions":{},"alphaMode":"OPAQUE","doubleSided":false},{"pbrMetallicRoughness":{"baseColorFactor":[0,0,0,1],"metallicFactor":0,"roughnessFactor":0.2},"name":"Charlotte","emissiveFactor":[0,0,0],"extensions":{},"alphaMode":"OPAQUE","doubleSided":false},{"pbrMetallicRoughness":{"baseColorFactor":[0,0,0,1],"metallicFactor":0,"roughnessFactor":0.2},"name":"Coastal Calm","emissiveFactor":[0,0,0],"extensions":{},"alphaMode":"OPAQUE","doubleSided":false},{"pbrMetallicRoughness":{"baseColorFactor":[0,0,0,1],"metallicFactor":0,"roughnessFactor":0.2},"name":"Atoll","emissiveFactor":[0,0,0],"extensions":{},"alphaMode":"OPAQUE","doubleSided":false}],"textures":[{"sampler":0,"source":0},{"sampler":0,"source":1}],"images":[{"uri":"Plastic_005_NormalMap.jpg","mimeType":"image/jpeg"},{"uri":"metallicTexture&Plastic_005_Roughness.jpg","mimeType":"image/jpeg"}],"samplers":[{"wrapS":10497,"wrapT":10497}],"meshes":[{"primitives":[{"mode":4,"attributes":{"POSITION":1,"NORMAL":2,"TEXCOORD_0":3},"material":0,"indices":0}]},{"primitives":[{"mode":4,"attributes":{"POSITION":5,"NORMAL":6,"TEXCOORD_0":7},"material":1,"indices":4}]},{"primitives":[{"mode":4,"attributes":{"POSITION":9,"NORMAL":10,"TEXCOORD_0":11},"material":2,"indices":8}]},{"primitives":[{"mode":4,"attributes":{"POSITION":13,"NORMAL":14,"TEXCOORD_0":15},"material":3,"indices":12}]},{"primitives":[{"mode":4,"attributes":{"POSITION":17,"NORMAL":18,"TEXCOORD_0":19},"material":4,"indices":16}]}],"accessors":[{"bufferView":0,"byteOffset":0,"componentType":5125,"count":13986,"type":"SCALAR"},{"bufferView":1,"byteOffset":0,"componentType":5126,"count":7214,"max":[1354.5400390625,2697.60009765625,-630.6640014648438],"min":[194.53799438476562,447.60400390625,-718.0640258789062],"type":"VEC3"},{"bufferView":2,"byteOffset":0,"componentType":5126,"count":7214,"type":"VEC3"},{"bufferView":3,"byteOffset":0,"componentType":5126,"count":7214,"type":"VEC2"},{"bufferView":4,"byteOffset":0,"componentType":5125,"count":2394,"type":"SCALAR"},{"bufferView":5,"byteOffset":0,"componentType":5126,"count":1183,"max":[1321.5400390625,839.3480224609375,-646.6640014648438],"min":[1307.47998046875,625.947998046875,-660.6640014648438],"type":"VEC3"},{"bufferView":6,"byteOffset":0,"componentType":5126,"count":1183,"type":"VEC3"},{"bufferView":7,"byteOffset":0,"componentType":5126,"count":1183,"type":"VEC2"},{"bufferView":8,"byteOffset":0,"componentType":5125,"count":2394,"type":"SCALAR"},{"bufferView":9,"byteOffset":0,"componentType":5126,"count":1183,"max":[1321.5400390625,1833.449951171875,-646.6640014648438],"min":[1307.47998046875,1620.050048828125,-660.6640014648438],"type":"VEC3"},{"bufferView":10,"byteOffset":0,"componentType":5126,"count":1183,"type":"VEC3"},{"bufferView":11,"byteOffset":0,"componentType":5126,"count":1183,"type":"VEC2"},{"bufferView":12,"byteOffset":0,"componentType":5125,"count":2394,"type":"SCALAR"},{"bufferView":13,"byteOffset":0,"componentType":5126,"count":1183,"max":[241.59500122070312,839.3480224609375,-646.6640014648438],"min":[227.53799438476562,625.947998046875,-660.6640014648438],"type":"VEC3"},{"bufferView":14,"byteOffset":0,"componentType":5126,"count":1183,"type":"VEC3"},{"bufferView":15,"byteOffset":0,"componentType":5126,"count":1183,"type":"VEC2"},{"bufferView":16,"byteOffset":0,"componentType":5125,"count":2394,"type":"SCALAR"},{"bufferView":17,"byteOffset":0,"componentType":5126,"count":1183,"max":[241.59500122070312,1833.449951171875,-646.6640014648438],"min":[227.53799438476562,1620.050048828125,-660.6640014648438],"type":"VEC3"},{"bufferView":18,"byteOffset":0,"componentType":5126,"count":1183,"type":"VEC3"},{"bufferView":19,"byteOffset":0,"componentType":5126,"count":1183,"type":"VEC2"}],"bufferViews":[{"buffer":0,"byteOffset":0,"byteLength":55944,"target":34963},{"buffer":0,"byteOffset":55944,"byteLength":86568,"target":34962},{"buffer":0,"byteOffset":142512,"byteLength":86568,"target":34962},{"buffer":0,"byteOffset":229080,"byteLength":57712,"target":34962},{"buffer":0,"byteOffset":286792,"byteLength":9576,"target":34963},{"buffer":0,"byteOffset":296368,"byteLength":14196,"target":34962},{"buffer":0,"byteOffset":310564,"byteLength":14196,"target":34962},{"buffer":0,"byteOffset":324760,"byteLength":9464,"target":34962},{"buffer":0,"byteOffset":334224,"byteLength":9576,"target":34963},{"buffer":0,"byteOffset":343800,"byteLength":14196,"target":34962},{"buffer":0,"byteOffset":357996,"byteLength":14196,"target":34962},{"buffer":0,"byteOffset":372192,"byteLength":9464,"target":34962},{"buffer":0,"byteOffset":381656,"byteLength":9576,"target":34963},{"buffer":0,"byteOffset":391232,"byteLength":14196,"target":34962},{"buffer":0,"byteOffset":405428,"byteLength":14196,"target":34962},{"buffer":0,"byteOffset":419624,"byteLength":9464,"target":34962},{"buffer":0,"byteOffset":429088,"byteLength":9576,"target":34963},{"buffer":0,"byteOffset":438664,"byteLength":14196,"target":34962},{"buffer":0,"byteOffset":452860,"byteLength":14196,"target":34962},{"buffer":0,"byteOffset":467056,"byteLength":9464,"target":34962}],"scene":0,"scenes":[{"nodes":[0],"name":"Project Name"}],"extensionsUsed":["KHR_texture_transform"],"buffers":[{"byteLength":476520,"uri":"ProjectName.bin"}]}