{"asset":{"version":"2.0","generator":"VECTARY"},"nodes":[{"translation":[0,0,0],"scale":[0.001,0.001,0.001],"rotation":[-0.7071067811865475,0,0,0.7071067811865476],"name":"diining_furnitures_29__vray","children":[1,2,3,4,5,6,7,8]},{"translation":[0,0,0],"scale":[1,1,1],"rotation":[0.7071067811865475,0,0,0.7071067811865476],"name":"diining_furnitures_29_001","mesh":0},{"translation":[0,0,0],"scale":[1,1,1],"rotation":[0.7071067811865475,0,0,0.7071067811865476],"name":"diining_furnitures_29_002","mesh":1},{"translation":[0,0,0],"scale":[1,1,1],"rotation":[0.7071067811865475,0,0,0.7071067811865476],"name":"diining_furnitures_29_003","mesh":2},{"translation":[0,0,0],"scale":[1,1,1],"rotation":[0.7071067811865475,0,0,0.7071067811865476],"name":"diining_furnitures_29_004","mesh":3},{"translation":[0,0,0],"scale":[1,1,1],"rotation":[0.7071067811865475,0,0,0.7071067811865476],"name":"diining_furnitures_29_005","mesh":4},{"translation":[0,0,0],"scale":[1,1,1],"rotation":[0.7071067811865475,0,0,0.7071067811865476],"name":"diining_furnitures_29_006","mesh":5},{"translation":[0,0,0],"scale":[1,1,1],"rotation":[0.7071067811865475,0,0,0.7071067811865476],"name":"diining_furnitures_29_007","mesh":6},{"translation":[0,0,0],"scale":[1,1,1],"rotation":[0.7071067811865475,0,0,0.7071067811865476],"name":"diining_furnitures_29_008","mesh":7}],"materials":[{"pbrMetallicRoughness":{"baseColorFactor":[0,0,0,1],"metallicRoughnessTexture":{"index":1,"extensions":{"KHR_texture_transform":{"offset":[0,0],"scale":[1,1],"rotation":0}},"texCoord":0},"metallicFactor":0,"roughnessFactor":1},"name":"Plastic Textured","normalTexture":{"index":0,"scale":1,"extensions":{"KHR_texture_transform":{"offset":[0,0],"scale":[1,1],"rotation":0}},"texCoord":0},"emissiveFactor":[0,0,0],"extensions":{},"alphaMode":"OPAQUE","doubleSided":false},{"pbrMetallicRoughness":{"baseColorFactor":[1,1,1,1],"baseColorTexture":{"index":2,"extensions":{"KHR_texture_transform":{"offset":[0,0],"scale":[1,1],"rotation":0}},"texCoord":0},"metallicRoughnessTexture":{"index":4,"extensions":{"KHR_texture_transform":{"offset":[0,0],"scale":[1,1],"rotation":0}},"texCoord":0},"metallicFactor":1,"roughnessFactor":1},"name":"Concrete","normalTexture":{"index":3,"scale":1,"extensions":{"KHR_texture_transform":{"offset":[0,0],"scale":[1,1],"rotation":0}},"texCoord":0},"emissiveFactor":[0,0,0],"extensions":{},"alphaMode":"OPAQUE","doubleSided":false},{"pbrMetallicRoughness":{"baseColorFactor":[1,1,1,1],"baseColorTexture":{"index":5,"extensions":{"KHR_texture_transform":{"offset":[0,0],"scale":[1,1],"rotation":0}},"texCoord":0},"metallicRoughnessTexture":{"index":7,"extensions":{"KHR_texture_transform":{"offset":[0,0],"scale":[1,1],"rotation":0}},"texCoord":0},"metallicFactor":1,"roughnessFactor":1},"name":"Concrete 2","normalTexture":{"index":6,"scale":1,"extensions":{"KHR_texture_transform":{"offset":[0,0],"scale":[1,1],"rotation":0}},"texCoord":0},"emissiveFactor":[0,0,0],"extensions":{},"alphaMode":"OPAQUE","doubleSided":false},{"pbrMetallicRoughness":{"baseColorFactor":[1,1,1,1],"baseColorTexture":{"index":8,"extensions":{"KHR_texture_transform":{"offset":[0,0],"scale":[1,1],"rotation":0}},"texCoord":0},"metallicRoughnessTexture":{"index":10,"extensions":{"KHR_texture_transform":{"offset":[0,0],"scale":[1,1],"rotation":0}},"texCoord":0},"metallicFactor":1,"roughnessFactor":1},"name":"Concrete 1","normalTexture":{"index":9,"scale":1,"extensions":{"KHR_texture_transform":{"offset":[0,0],"scale":[1,1],"rotation":0}},"texCoord":0},"emissiveFactor":[0,0,0],"extensions":{},"alphaMode":"OPAQUE","doubleSided":false},{"pbrMetallicRoughness":{"baseColorFactor":[1,1,1,1],"baseColorTexture":{"index":11,"extensions":{"KHR_texture_transform":{"offset":[0,0],"scale":[1,1],"rotation":0}},"texCoord":0},"metallicRoughnessTexture":{"index":13,"extensions":{"KHR_texture_transform":{"offset":[0,0],"scale":[1,1],"rotation":0}},"texCoord":0},"metallicFactor":1,"roughnessFactor":1},"name":"Concrete 3","normalTexture":{"index":12,"scale":1,"extensions":{"KHR_texture_transform":{"offset":[0,0],"scale":[1,1],"rotation":0}},"texCoord":0},"emissiveFactor":[0,0,0],"extensions":{},"alphaMode":"OPAQUE","doubleSided":false},{"pbrMetallicRoughness":{"baseColorFactor":[1,1,1,1],"baseColorTexture":{"index":14,"extensions":{"KHR_texture_transform":{"offset":[0,0],"scale":[1,1],"rotation":0}},"texCoord":0},"metallicFactor":1,"roughnessFactor":1},"name":"Fabric","normalTexture":{"index":15,"scale":1,"extensions":{"KHR_texture_transform":{"offset":[0,0],"scale":[1,1],"rotation":0}},"texCoord":0},"emissiveFactor":[0,0,0],"extensions":{},"alphaMode":"OPAQUE","doubleSided":false},{"pbrMetallicRoughness":{"baseColorFactor":[1,1,1,1],"baseColorTexture":{"index":16,"extensions":{"KHR_texture_transform":{"offset":[0,0],"scale":[1,1],"rotation":0}},"texCoord":0},"metallicRoughnessTexture":{"index":18,"extensions":{"KHR_texture_transform":{"offset":[0,0],"scale":[1,1],"rotation":0}},"texCoord":0},"metallicFactor":0,"roughnessFactor":1},"name":"Wood","normalTexture":{"index":17,"scale":1,"extensions":{"KHR_texture_transform":{"offset":[0,0],"scale":[1,1],"rotation":0}},"texCoord":0},"emissiveFactor":[0,0,0],"extensions":{},"alphaMode":"OPAQUE","doubleSided":false},{"pbrMetallicRoughness":{"baseColorFactor":[0.07176144884623908,0.07805658995810189,0.14198029068573553,1],"metallicFactor":0,"roughnessFactor":0.2},"name":"Bare","emissiveFactor":[0,0,0],"extensions":{},"alphaMode":"OPAQUE","doubleSided":false}],"textures":[{"sampler":0,"source":0},{"sampler":0,"source":1},{"sampler":0,"source":2},{"sampler":0,"source":3},{"sampler":0,"source":4},{"sampler":0,"source":5},{"sampler":0,"source":6},{"sampler":0,"source":7},{"sampler":0,"source":8},{"sampler":0,"source":9},{"sampler":0,"source":10},{"sampler":0,"source":11},{"sampler":0,"source":12},{"sampler":0,"source":13},{"sampler":0,"source":14},{"sampler":0,"source":15},{"sampler":0,"source":16},{"sampler":0,"source":17},{"sampler":0,"source":18}],"images":[{"uri":"Plastic_002_NormalMap.jpg","mimeType":"image/jpeg"},{"uri":"metallicTexture&Plastic_002_Roughness.jpg","mimeType":"image/jpeg"},{"uri":"Concrete_012_Color.jpg","mimeType":"image/jpeg"},{"uri":"Concrete_012_NormalMap_1.jpg","mimeType":"image/jpeg"},{"uri":"Concrete_012_Metalic&Concrete_012_Roughness_1.jpg","mimeType":"image/jpeg"},{"uri":"Concrete_012_Color_1.jpg","mimeType":"image/jpeg"},{"uri":"Concrete_012_NormalMap_2.jpg","mimeType":"image/jpeg"},{"uri":"Concrete_012_Metalic&Concrete_012_Roughness_2.jpg","mimeType":"image/jpeg"},{"uri":"Concrete_012_Color_2.jpg","mimeType":"image/jpeg"},{"uri":"Concrete_012_NormalMap_3.jpg","mimeType":"image/jpeg"},{"uri":"Concrete_012_Metalic&Concrete_012_Roughness_3.jpg","mimeType":"image/jpeg"},{"uri":"Concrete_012_Color_3.jpg","mimeType":"image/jpeg"},{"uri":"Concrete_012_NormalMap.jpg","mimeType":"image/jpeg"},{"uri":"Concrete_012_Metalic&Concrete_012_Roughness.jpg","mimeType":"image/jpeg"},{"uri":"Fabric_009_Color.jpg","mimeType":"image/jpeg"},{"uri":"Fabric_009_Normal.jpg","mimeType":"image/jpeg"},{"uri":"wood_Wood_007_Color.jpg","mimeType":"image/jpeg"},{"uri":"wood_Wood_007_NormalMap.jpg","mimeType":"image/jpeg"},{"uri":"metallicTexture&wood_Wood_007_Roughness.jpg","mimeType":"image/jpeg"}],"samplers":[{"wrapS":10497,"wrapT":10497}],"meshes":[{"primitives":[{"mode":4,"attributes":{"POSITION":1,"NORMAL":2,"TEXCOORD_0":3},"material":0,"indices":0}]},{"primitives":[{"mode":4,"attributes":{"POSITION":5,"NORMAL":6,"TEXCOORD_0":7},"material":1,"indices":4}]},{"primitives":[{"mode":4,"attributes":{"POSITION":9,"NORMAL":10,"TEXCOORD_0":11},"material":2,"indices":8}]},{"primitives":[{"mode":4,"attributes":{"POSITION":13,"NORMAL":14,"TEXCOORD_0":15},"material":3,"indices":12}]},{"primitives":[{"mode":4,"attributes":{"POSITION":17,"NORMAL":18,"TEXCOORD_0":19},"material":4,"indices":16}]},{"primitives":[{"mode":4,"attributes":{"POSITION":21,"NORMAL":22,"TEXCOORD_0":23},"material":5,"indices":20}]},{"primitives":[{"mode":4,"attributes":{"POSITION":25,"NORMAL":26,"TEXCOORD_0":27},"material":6,"indices":24}]},{"primitives":[{"mode":4,"attributes":{"POSITION":29,"NORMAL":30,"TEXCOORD_0":31},"material":7,"indices":28}]}],"accessors":[{"bufferView":0,"byteOffset":0,"componentType":5125,"count":123948,"type":"SCALAR"},{"bufferView":1,"byteOffset":0,"componentType":5126,"count":25815,"max":[126.51860046386719,1894.6756591796875,58.28889846801758],"min":[-115.49749755859375,1176.9156494140625,-183.72720336914062],"type":"VEC3"},{"bufferView":2,"byteOffset":0,"componentType":5126,"count":25815,"type":"VEC3"},{"bufferView":3,"byteOffset":0,"componentType":5126,"count":25815,"type":"VEC2"},{"bufferView":4,"byteOffset":0,"componentType":5125,"count":68112,"type":"SCALAR"},{"bufferView":5,"byteOffset":0,"componentType":5126,"count":13262,"max":[811.8770751953125,798.736572265625,-44.36629867553711],"min":[342.2195129394531,0,-464.1788024902344],"type":"VEC3"},{"bufferView":6,"byteOffset":0,"componentType":5126,"count":13262,"type":"VEC3"},{"bufferView":7,"byteOffset":0,"componentType":5126,"count":13262,"type":"VEC2"},{"bufferView":8,"byteOffset":0,"componentType":5125,"count":68112,"type":"SCALAR"},{"bufferView":9,"byteOffset":0,"componentType":5126,"count":13262,"max":[-342.2195129394531,798.736572265625,454.2356872558594],"min":[-811.8770751953125,0,34.42319869995117],"type":"VEC3"},{"bufferView":10,"byteOffset":0,"componentType":5126,"count":13262,"type":"VEC3"},{"bufferView":11,"byteOffset":0,"componentType":5126,"count":13262,"type":"VEC2"},{"bufferView":12,"byteOffset":0,"componentType":5125,"count":68112,"type":"SCALAR"},{"bufferView":13,"byteOffset":0,"componentType":5126,"count":13262,"max":[811.8770751953125,798.736572265625,454.235595703125],"min":[342.2195129394531,0,34.42319869995117],"type":"VEC3"},{"bufferView":14,"byteOffset":0,"componentType":5126,"count":13262,"type":"VEC3"},{"bufferView":15,"byteOffset":0,"componentType":5126,"count":13262,"type":"VEC2"},{"bufferView":16,"byteOffset":0,"componentType":5125,"count":68112,"type":"SCALAR"},{"bufferView":17,"byteOffset":0,"componentType":5126,"count":13262,"max":[-342.2195129394531,798.736572265625,-44.36629867553711],"min":[-811.8770751953125,0,-464.1788024902344],"type":"VEC3"},{"bufferView":18,"byteOffset":0,"componentType":5126,"count":13262,"type":"VEC3"},{"bufferView":19,"byteOffset":0,"componentType":5126,"count":13262,"type":"VEC2"},{"bufferView":20,"byteOffset":0,"componentType":5125,"count":535008,"type":"SCALAR"},{"bufferView":21,"byteOffset":0,"componentType":5126,"count":90201,"max":[303.6947021484375,1103.08740234375,278.8092956542969],"min":[-228.077392578125,780.5225219726562,-358.0508117675781],"type":"VEC3"},{"bufferView":22,"byteOffset":0,"componentType":5126,"count":90201,"type":"VEC3"},{"bufferView":23,"byteOffset":0,"componentType":5126,"count":90201,"type":"VEC2"},{"bufferView":24,"byteOffset":0,"componentType":5125,"count":10956,"type":"SCALAR"},{"bufferView":25,"byteOffset":0,"componentType":5126,"count":2824,"max":[388.3554992675781,768.1842041015625,573.8792114257812],"min":[-374.9140930175781,0.42750000953674316,-573.8792114257812],"type":"VEC3"},{"bufferView":26,"byteOffset":0,"componentType":5126,"count":2824,"type":"VEC3"},{"bufferView":27,"byteOffset":0,"componentType":5126,"count":2824,"type":"VEC2"},{"bufferView":28,"byteOffset":0,"componentType":5125,"count":35328,"type":"SCALAR"},{"bufferView":29,"byteOffset":0,"componentType":5126,"count":6816,"max":[39.66419982910156,923.9462890625,-26.257200241088867],"min":[-48.0796012878418,767.3217163085938,-114.00090026855469],"type":"VEC3"},{"bufferView":30,"byteOffset":0,"componentType":5126,"count":6816,"type":"VEC3"},{"bufferView":31,"byteOffset":0,"componentType":5126,"count":6816,"type":"VEC2"}],"bufferViews":[{"buffer":0,"byteOffset":0,"byteLength":495792,"target":34963},{"buffer":0,"byteOffset":495792,"byteLength":309780,"target":34962},{"buffer":0,"byteOffset":805572,"byteLength":309780,"target":34962},{"buffer":0,"byteOffset":1115352,"byteLength":206520,"target":34962},{"buffer":0,"byteOffset":1321872,"byteLength":272448,"target":34963},{"buffer":0,"byteOffset":1594320,"byteLength":159144,"target":34962},{"buffer":0,"byteOffset":1753464,"byteLength":159144,"target":34962},{"buffer":0,"byteOffset":1912608,"byteLength":106096,"target":34962},{"buffer":0,"byteOffset":2018704,"byteLength":272448,"target":34963},{"buffer":0,"byteOffset":2291152,"byteLength":159144,"target":34962},{"buffer":0,"byteOffset":2450296,"byteLength":159144,"target":34962},{"buffer":0,"byteOffset":2609440,"byteLength":106096,"target":34962},{"buffer":0,"byteOffset":2715536,"byteLength":272448,"target":34963},{"buffer":0,"byteOffset":2987984,"byteLength":159144,"target":34962},{"buffer":0,"byteOffset":3147128,"byteLength":159144,"target":34962},{"buffer":0,"byteOffset":3306272,"byteLength":106096,"target":34962},{"buffer":0,"byteOffset":3412368,"byteLength":272448,"target":34963},{"buffer":0,"byteOffset":3684816,"byteLength":159144,"target":34962},{"buffer":0,"byteOffset":3843960,"byteLength":159144,"target":34962},{"buffer":0,"byteOffset":4003104,"byteLength":106096,"target":34962},{"buffer":0,"byteOffset":4109200,"byteLength":2140032,"target":34963},{"buffer":0,"byteOffset":6249232,"byteLength":1082412,"target":34962},{"buffer":0,"byteOffset":7331644,"byteLength":1082412,"target":34962},{"buffer":0,"byteOffset":8414056,"byteLength":721608,"target":34962},{"buffer":0,"byteOffset":9135664,"byteLength":43824,"target":34963},{"buffer":0,"byteOffset":9179488,"byteLength":33888,"target":34962},{"buffer":0,"byteOffset":9213376,"byteLength":33888,"target":34962},{"buffer":0,"byteOffset":9247264,"byteLength":22592,"target":34962},{"buffer":0,"byteOffset":9269856,"byteLength":141312,"target":34963},{"buffer":0,"byteOffset":9411168,"byteLength":81792,"target":34962},{"buffer":0,"byteOffset":9492960,"byteLength":81792,"target":34962},{"buffer":0,"byteOffset":9574752,"byteLength":54528,"target":34962}],"scene":0,"scenes":[{"nodes":[0],"name":"Project Name"}],"extensionsUsed":["KHR_texture_transform"],"buffers":[{"byteLength":9629280,"uri":"ProjectName.bin"}]}