{"asset":{"version":"2.0","generator":"VECTARY"},"nodes":[{"translation":[0,0,0],"scale":[0.001,0.001,0.001],"rotation":[-0.7071067811865475,0,0,0.7071067811865476],"name":"uploads_files_3106533_obj","children":[1,2,3,4,5]},{"translation":[0,0,0],"scale":[1,1,1],"rotation":[0.7071067811865475,0,0,0.7071067811865476],"name":"Zeitraum_Tavola","mesh":0},{"translation":[0,0,0],"scale":[1,1,1],"rotation":[0.7071067811865475,0,0,0.7071067811865476],"name":"Zeitraum_Finn","mesh":1},{"translation":[0,0,0],"scale":[1,1,1],"rotation":[0.7071067811865475,0,0,0.7071067811865476],"name":"Zeitraum_Finn001","mesh":2},{"translation":[0,0,0],"scale":[1,1,1],"rotation":[0.7071067811865475,0,0,0.7071067811865476],"name":"Zeitraum_Finn002","mesh":3},{"translation":[0,0,0],"scale":[1,1,1],"rotation":[0.7071067811865475,0,0,0.7071067811865476],"name":"Zeitraum_Finn003","mesh":4}],"materials":[{"pbrMetallicRoughness":{"baseColorFactor":[1,1,1,1],"baseColorTexture":{"index":0,"extensions":{"KHR_texture_transform":{"offset":[0,0],"scale":[1,1],"rotation":0}},"texCoord":0},"metallicRoughnessTexture":{"index":2,"extensions":{"KHR_texture_transform":{"offset":[0,0],"scale":[1,1],"rotation":0}},"texCoord":0},"metallicFactor":0,"roughnessFactor":1},"name":"Wood 1","normalTexture":{"index":1,"scale":1,"extensions":{"KHR_texture_transform":{"offset":[0,0],"scale":[1,1],"rotation":0}},"texCoord":0},"emissiveFactor":[0,0,0],"extensions":{},"alphaMode":"OPAQUE","doubleSided":false},{"pbrMetallicRoughness":{"baseColorFactor":[0,0,0,1],"metallicRoughnessTexture":{"index":4,"extensions":{"KHR_texture_transform":{"offset":[0,0],"scale":[1,1],"rotation":0}},"texCoord":0},"metallicFactor":0,"roughnessFactor":1},"name":"Plastic Textured","normalTexture":{"index":3,"scale":1,"extensions":{"KHR_texture_transform":{"offset":[0,0],"scale":[1,1],"rotation":0}},"texCoord":0},"emissiveFactor":[0,0,0],"extensions":{},"alphaMode":"OPAQUE","doubleSided":false},{"pbrMetallicRoughness":{"baseColorFactor":[0,0,0,1],"metallicRoughnessTexture":{"index":6,"extensions":{"KHR_texture_transform":{"offset":[0,0],"scale":[1,1],"rotation":0}},"texCoord":0},"metallicFactor":0,"roughnessFactor":1},"name":"Plastic Textured 3","normalTexture":{"index":5,"scale":1,"extensions":{"KHR_texture_transform":{"offset":[0,0],"scale":[1,1],"rotation":0}},"texCoord":0},"emissiveFactor":[0,0,0],"extensions":{},"alphaMode":"OPAQUE","doubleSided":false},{"pbrMetallicRoughness":{"baseColorFactor":[0,0,0,1],"metallicRoughnessTexture":{"index":8,"extensions":{"KHR_texture_transform":{"offset":[0,0],"scale":[1,1],"rotation":0}},"texCoord":0},"metallicFactor":0,"roughnessFactor":1},"name":"Plastic Textured 2","normalTexture":{"index":7,"scale":1,"extensions":{"KHR_texture_transform":{"offset":[0,0],"scale":[1,1],"rotation":0}},"texCoord":0},"emissiveFactor":[0,0,0],"extensions":{},"alphaMode":"OPAQUE","doubleSided":false},{"pbrMetallicRoughness":{"baseColorFactor":[0,0,0,1],"metallicRoughnessTexture":{"index":10,"extensions":{"KHR_texture_transform":{"offset":[0,0],"scale":[1,1],"rotation":0}},"texCoord":0},"metallicFactor":0,"roughnessFactor":1},"name":"Plastic Textured 1","normalTexture":{"index":9,"scale":1,"extensions":{"KHR_texture_transform":{"offset":[0,0],"scale":[1,1],"rotation":0}},"texCoord":0},"emissiveFactor":[0,0,0],"extensions":{},"alphaMode":"OPAQUE","doubleSided":false}],"textures":[{"sampler":0,"source":0},{"sampler":0,"source":1},{"sampler":0,"source":2},{"sampler":0,"source":3},{"sampler":0,"source":4},{"sampler":0,"source":5},{"sampler":0,"source":6},{"sampler":0,"source":7},{"sampler":0,"source":8},{"sampler":0,"source":9},{"sampler":0,"source":10}],"images":[{"uri":"wood_Wood_008_Color.jpg","mimeType":"image/jpeg"},{"uri":"wood_Wood_008_NormalMap.jpg","mimeType":"image/jpeg"},{"uri":"metallicTexture&wood_Wood_008_Roughness.jpg","mimeType":"image/jpeg"},{"uri":"Plastic_010_NormalMap_3.jpg","mimeType":"image/jpeg"},{"uri":"metallicTexture&Plastic_010_Roughness_2.jpg","mimeType":"image/jpeg"},{"uri":"Plastic_010_NormalMap.jpg","mimeType":"image/jpeg"},{"uri":"metallicTexture&Plastic_010_Roughness_3.jpg","mimeType":"image/jpeg"},{"uri":"Plastic_010_NormalMap_1.jpg","mimeType":"image/jpeg"},{"uri":"metallicTexture&Plastic_010_Roughness.jpg","mimeType":"image/jpeg"},{"uri":"Plastic_010_NormalMap_2.jpg","mimeType":"image/jpeg"},{"uri":"metallicTexture&Plastic_010_Roughness_1.jpg","mimeType":"image/jpeg"}],"samplers":[{"wrapS":10497,"wrapT":10497}],"meshes":[{"primitives":[{"mode":4,"attributes":{"POSITION":1,"NORMAL":2,"TEXCOORD_0":3},"material":0,"indices":0}]},{"primitives":[{"mode":4,"attributes":{"POSITION":5,"NORMAL":6,"TEXCOORD_0":7},"material":1,"indices":4}]},{"primitives":[{"mode":4,"attributes":{"POSITION":9,"NORMAL":10,"TEXCOORD_0":11},"material":2,"indices":8}]},{"primitives":[{"mode":4,"attributes":{"POSITION":13,"NORMAL":14,"TEXCOORD_0":15},"material":3,"indices":12}]},{"primitives":[{"mode":4,"attributes":{"POSITION":17,"NORMAL":18,"TEXCOORD_0":19},"material":4,"indices":16}]}],"accessors":[{"bufferView":0,"byteOffset":0,"componentType":5125,"count":6696,"type":"SCALAR"},{"bufferView":1,"byteOffset":0,"componentType":5126,"count":3582,"max":[934.9439086914062,749.2125854492188,203.49729919433594],"min":[-1065.05615234375,-0.7874000072479248,-696.502685546875],"type":"VEC3"},{"bufferView":2,"byteOffset":0,"componentType":5126,"count":3582,"type":"VEC3"},{"bufferView":3,"byteOffset":0,"componentType":5126,"count":3582,"type":"VEC2"},{"bufferView":4,"byteOffset":0,"componentType":5125,"count":32388,"type":"SCALAR"},{"bufferView":5,"byteOffset":0,"componentType":5126,"count":9094,"max":[432.6859130859375,798.019287109375,-616.5120239257812],"min":[2.6851999759674072,-0.7874000072479248,-1115.7091064453125],"type":"VEC3"},{"bufferView":6,"byteOffset":0,"componentType":5126,"count":9094,"type":"VEC3"},{"bufferView":7,"byteOffset":0,"componentType":5126,"count":9094,"type":"VEC2"},{"bufferView":8,"byteOffset":0,"componentType":5125,"count":32388,"type":"SCALAR"},{"bufferView":9,"byteOffset":0,"componentType":5126,"count":9094,"max":[-150.8867950439453,798.019287109375,-616.5120239257812],"min":[-580.8875732421875,-0.7874000072479248,-1115.7091064453125],"type":"VEC3"},{"bufferView":10,"byteOffset":0,"componentType":5126,"count":9094,"type":"VEC3"},{"bufferView":11,"byteOffset":0,"componentType":5126,"count":9094,"type":"VEC2"},{"bufferView":12,"byteOffset":0,"componentType":5125,"count":32388,"type":"SCALAR"},{"bufferView":13,"byteOffset":0,"componentType":5126,"count":9094,"max":[-150.88720703125,798.019287109375,517.4185791015625],"min":[-580.8878784179688,-0.7874000072479248,18.22130012512207],"type":"VEC3"},{"bufferView":14,"byteOffset":0,"componentType":5126,"count":9094,"type":"VEC3"},{"bufferView":15,"byteOffset":0,"componentType":5126,"count":9094,"type":"VEC2"},{"bufferView":16,"byteOffset":0,"componentType":5125,"count":32388,"type":"SCALAR"},{"bufferView":17,"byteOffset":0,"componentType":5126,"count":9094,"max":[432.6860046386719,798.019287109375,517.4185791015625],"min":[2.68530011177063,-0.7874000072479248,18.22130012512207],"type":"VEC3"},{"bufferView":18,"byteOffset":0,"componentType":5126,"count":9094,"type":"VEC3"},{"bufferView":19,"byteOffset":0,"componentType":5126,"count":9094,"type":"VEC2"}],"bufferViews":[{"buffer":0,"byteOffset":0,"byteLength":26784,"target":34963},{"buffer":0,"byteOffset":26784,"byteLength":42984,"target":34962},{"buffer":0,"byteOffset":69768,"byteLength":42984,"target":34962},{"buffer":0,"byteOffset":112752,"byteLength":28656,"target":34962},{"buffer":0,"byteOffset":141408,"byteLength":129552,"target":34963},{"buffer":0,"byteOffset":270960,"byteLength":109128,"target":34962},{"buffer":0,"byteOffset":380088,"byteLength":109128,"target":34962},{"buffer":0,"byteOffset":489216,"byteLength":72752,"target":34962},{"buffer":0,"byteOffset":561968,"byteLength":129552,"target":34963},{"buffer":0,"byteOffset":691520,"byteLength":109128,"target":34962},{"buffer":0,"byteOffset":800648,"byteLength":109128,"target":34962},{"buffer":0,"byteOffset":909776,"byteLength":72752,"target":34962},{"buffer":0,"byteOffset":982528,"byteLength":129552,"target":34963},{"buffer":0,"byteOffset":1112080,"byteLength":109128,"target":34962},{"buffer":0,"byteOffset":1221208,"byteLength":109128,"target":34962},{"buffer":0,"byteOffset":1330336,"byteLength":72752,"target":34962},{"buffer":0,"byteOffset":1403088,"byteLength":129552,"target":34963},{"buffer":0,"byteOffset":1532640,"byteLength":109128,"target":34962},{"buffer":0,"byteOffset":1641768,"byteLength":109128,"target":34962},{"buffer":0,"byteOffset":1750896,"byteLength":72752,"target":34962}],"scene":0,"scenes":[{"nodes":[0],"name":"Project Name"}],"extensionsUsed":["KHR_texture_transform"],"buffers":[{"byteLength":1823648,"uri":"ProjectName.bin"}]}