{"asset":{"version":"2.0","generator":"VECTARY"},"nodes":[{"translation":[0,0.0010804438074897582,-0.0009141884534362814],"scale":[0.0010183628226975371,0.0010183628226975371,0.0010183628226975371],"rotation":[-0.9999302509182495,0,0,0.011810728113297198],"name":"odesd2_C2","children":[1]},{"translation":[0,0,0],"scale":[1,1,1],"rotation":[0.7071067811865475,0,0,0.7071067811865476],"name":"Buffer Object","mesh":0}],"materials":[{"pbrMetallicRoughness":{"baseColorFactor":[0.000005077051900661759,0.17343903633213503,0.2801243652610849,1],"metallicFactor":0,"roughnessFactor":0.2},"name":"High Point","emissiveFactor":[0,0,0],"extensions":{},"alphaMode":"OPAQUE","doubleSided":false}],"meshes":[{"primitives":[{"mode":4,"attributes":{"POSITION":1,"NORMAL":2,"TEXCOORD_0":3},"material":0,"indices":0}]}],"accessors":[{"bufferView":0,"byteOffset":0,"componentType":5125,"count":35784,"type":"SCALAR"},{"bufferView":1,"byteOffset":0,"componentType":5126,"count":7452,"max":[27.5,27.975799560546875,77.84649658203125],"min":[-27.5,-27.97570037841797,0],"type":"VEC3"},{"bufferView":2,"byteOffset":0,"componentType":5126,"count":7452,"type":"VEC3"},{"bufferView":3,"byteOffset":0,"componentType":5126,"count":7452,"type":"VEC2"}],"bufferViews":[{"buffer":0,"byteOffset":0,"byteLength":143136,"target":34963},{"buffer":0,"byteOffset":143136,"byteLength":89424,"target":34962},{"buffer":0,"byteOffset":232560,"byteLength":89424,"target":34962},{"buffer":0,"byteOffset":321984,"byteLength":59616,"target":34962}],"scene":0,"scenes":[{"nodes":[0],"name":"Project Name"}],"extensionsUsed":["KHR_texture_transform"],"buffers":[{"byteLength":381600,"uri":"ProjectName.bin"}]}