{"asset":{"version":"2.0","generator":"VECTARY"},"nodes":[{"translation":[-0.0012700365796511571,0.006277022560076478,-0.0013709585260145243],"scale":[0.001,0.001,0.001],"rotation":[-0.7071067811865475,0,0,0.7071067811865476],"name":"Cupboard_Cube.001","children":[1]},{"translation":[0,0,0],"scale":[1,1,1],"rotation":[0.7071067811865475,0,0,0.7071067811865476],"name":"Buffer Object","mesh":0}],"materials":[{"pbrMetallicRoughness":{"baseColorFactor":[1,1,1,1],"baseColorTexture":{"index":0,"extensions":{"KHR_texture_transform":{"offset":[0,0],"scale":[1,1],"rotation":0}},"texCoord":0},"metallicRoughnessTexture":{"index":2,"extensions":{"KHR_texture_transform":{"offset":[0,0],"scale":[1,1],"rotation":0}},"texCoord":0},"metallicFactor":0,"roughnessFactor":1},"name":"Wood","normalTexture":{"index":1,"scale":1,"extensions":{"KHR_texture_transform":{"offset":[0,0],"scale":[1,1],"rotation":0}},"texCoord":0},"emissiveFactor":[0,0,0],"extensions":{},"alphaMode":"OPAQUE","doubleSided":false}],"textures":[{"sampler":0,"source":0},{"sampler":0,"source":1},{"sampler":0,"source":2}],"images":[{"uri":"Wood_001_Color_3.jpg","mimeType":"image/jpeg"},{"uri":"Wood_001_NormalMap.jpg","mimeType":"image/jpeg"},{"uri":"metallicTexture&Wood_001_Roughness.jpg","mimeType":"image/jpeg"}],"samplers":[{"wrapS":10497,"wrapT":10497}],"meshes":[{"primitives":[{"mode":4,"attributes":{"POSITION":1,"NORMAL":2,"TEXCOORD_0":3},"material":0,"indices":0}]}],"accessors":[{"bufferView":0,"byteOffset":0,"componentType":5125,"count":14328,"type":"SCALAR"},{"bufferView":1,"byteOffset":0,"componentType":5126,"count":3298,"max":[0.504235029220581,2.24707293510437,0.7503049969673157],"min":[-0.4944010078907013,0.004040999803692102,0.0006910000229254365],"type":"VEC3"},{"bufferView":2,"byteOffset":0,"componentType":5126,"count":3298,"type":"VEC3"},{"bufferView":3,"byteOffset":0,"componentType":5126,"count":3298,"type":"VEC2"}],"bufferViews":[{"buffer":0,"byteOffset":0,"byteLength":57312,"target":34963},{"buffer":0,"byteOffset":57312,"byteLength":39576,"target":34962},{"buffer":0,"byteOffset":96888,"byteLength":39576,"target":34962},{"buffer":0,"byteOffset":136464,"byteLength":26384,"target":34962}],"scene":0,"scenes":[{"nodes":[0],"name":"Project Name"}],"extensionsUsed":["KHR_texture_transform"],"buffers":[{"byteLength":162848,"uri":"ProjectName.bin"}]}