{"asset":{"version":"2.0","generator":"VECTARY"},"nodes":[{"translation":[0,0,0],"scale":[100,99.99999657714602,99.99999657714602],"rotation":[-0.7071067811865475,0,0,0.7071067811865476],"name":"Side_Table.1","children":[1]},{"translation":[0,0,0],"scale":[1,1,1],"rotation":[0,0,0,1],"name":"Buffer Object","mesh":0}],"materials":[{"pbrMetallicRoughness":{"baseColorFactor":[0.0055217448502396585,0.24680041960155044,0.2388279842720483,1],"metallicFactor":0,"roughnessFactor":1},"name":"Caribbean Beauty","emissiveFactor":[0,0,0],"extensions":{},"alphaMode":"OPAQUE","doubleSided":true}],"meshes":[{"primitives":[{"mode":4,"attributes":{"POSITION":1,"NORMAL":2,"TEXCOORD_0":3},"material":0,"indices":0}]}],"accessors":[{"bufferView":0,"byteOffset":0,"componentType":5125,"count":284196,"type":"SCALAR"},{"bufferView":1,"byteOffset":0,"componentType":5126,"count":57371,"max":[0.2549999952316284,0.13500002026557922,0.3700000047683716],"min":[-0.2549999952316284,-0.13500002026557922,0.00002866038994397968],"type":"VEC3"},{"bufferView":2,"byteOffset":0,"componentType":5126,"count":57371,"type":"VEC3"},{"bufferView":3,"byteOffset":0,"componentType":5126,"count":57371,"type":"VEC2"}],"bufferViews":[{"buffer":0,"byteOffset":0,"byteLength":1136784,"target":34963},{"buffer":0,"byteOffset":1136784,"byteLength":688452,"target":34962},{"buffer":0,"byteOffset":1825236,"byteLength":688452,"target":34962},{"buffer":0,"byteOffset":2513688,"byteLength":458968,"target":34962}],"scene":0,"scenes":[{"nodes":[0],"name":"Project Name"}],"extensionsUsed":["KHR_texture_transform"],"buffers":[{"byteLength":2972656,"uri":"ProjectName.bin"}]}