{"asset":{"version":"2.0","generator":"VECTARY"},"nodes":[{"translation":[0,0,0],"scale":[0.001,0.001,0.001],"rotation":[-0.7071067811865475,0,0,0.7071067811865476],"name":"uploads_files_3061907_MasterBed","children":[1,2,3,4,5,6,7,8,9,10,11,12]},{"translation":[0,0,0],"scale":[1,1,1],"rotation":[0.7071067811865475,0,0,0.7071067811865476],"name":"frame_Cube.001","mesh":0},{"translation":[0,0,0],"scale":[1,1,1],"rotation":[0.7071067811865475,0,0,0.7071067811865476],"name":"back_Cube.002","mesh":1},{"translation":[0,0,0],"scale":[1,1,1],"rotation":[0.7071067811865475,0,0,0.7071067811865476],"name":"legs_Cylinder","mesh":2},{"translation":[0,0,0],"scale":[1,1,1],"rotation":[0.7071067811865475,0,0,0.7071067811865476],"name":"legs02_Cylinder.001","mesh":3},{"translation":[0,0,0],"scale":[1,1,1],"rotation":[0.7071067811865475,0,0,0.7071067811865476],"name":"matress_Plane.001","mesh":4},{"translation":[0,0,0],"scale":[1,1,1],"rotation":[0.7071067811865475,0,0,0.7071067811865476],"name":"big_blanket_Cube.003","mesh":5},{"translation":[0,0,0],"scale":[1,1,1],"rotation":[0.7071067811865475,0,0,0.7071067811865476],"name":"small_pillow01_Plane.007","mesh":6},{"translation":[0,0,0],"scale":[1,1,1],"rotation":[0.7071067811865475,0,0,0.7071067811865476],"name":"small_pillow02_Plane.008","mesh":7},{"translation":[0,0,0],"scale":[1,1,1],"rotation":[0.7071067811865475,0,0,0.7071067811865476],"name":"small_pillow03_Plane.009","mesh":8},{"translation":[0,0,0],"scale":[1,1,1],"rotation":[0.7071067811865475,0,0,0.7071067811865476],"name":"big_pillow_Plane.004","mesh":9},{"translation":[0,0,0],"scale":[1,1,1],"rotation":[0.7071067811865475,0,0,0.7071067811865476],"name":"big_pillow02_Plane.006","mesh":10},{"translation":[0,0,0],"scale":[1,1,1],"rotation":[0.7071067811865475,0,0,0.7071067811865476],"name":"small_blanket_Plane.010","mesh":11}],"materials":[{"pbrMetallicRoughness":{"baseColorFactor":[0.8670237934377415,0.8670237934377415,0.8670237934377415,1],"metallicFactor":0,"roughnessFactor":0.2},"name":"Light Spirit","emissiveFactor":[0,0,0],"extensions":{},"alphaMode":"OPAQUE","doubleSided":false},{"pbrMetallicRoughness":{"baseColorFactor":[0.8670237934377415,0.8670237934377415,0.8670237934377415,1],"metallicFactor":0,"roughnessFactor":0.2},"name":"Echo","emissiveFactor":[0,0,0],"extensions":{},"alphaMode":"OPAQUE","doubleSided":false},{"pbrMetallicRoughness":{"baseColorFactor":[0.8670237934377415,0.8670237934377415,0.8670237934377415,1],"metallicFactor":0,"roughnessFactor":0.2},"name":"Cold Wave","emissiveFactor":[0,0,0],"extensions":{},"alphaMode":"OPAQUE","doubleSided":false},{"pbrMetallicRoughness":{"baseColorFactor":[0.8670237934377415,0.8670237934377415,0.8670237934377415,1],"metallicFactor":0,"roughnessFactor":0.2},"name":"Yolanda","emissiveFactor":[0,0,0],"extensions":{},"alphaMode":"OPAQUE","doubleSided":false},{"pbrMetallicRoughness":{"baseColorFactor":[0.8670237934377415,0.8670237934377415,0.8670237934377415,1],"metallicFactor":0,"roughnessFactor":0.2},"name":"Melissa","emissiveFactor":[0,0,0],"extensions":{},"alphaMode":"OPAQUE","doubleSided":false},{"pbrMetallicRoughness":{"baseColorFactor":[0.8670237934377415,0.8670237934377415,0.8670237934377415,1],"metallicFactor":0,"roughnessFactor":0.2},"name":"Hugo","emissiveFactor":[0,0,0],"extensions":{},"alphaMode":"OPAQUE","doubleSided":false},{"pbrMetallicRoughness":{"baseColorFactor":[0.8670237934377415,0.8670237934377415,0.8670237934377415,1],"metallicFactor":0,"roughnessFactor":0.2},"name":"Brooklyn","emissiveFactor":[0,0,0],"extensions":{},"alphaMode":"OPAQUE","doubleSided":false},{"pbrMetallicRoughness":{"baseColorFactor":[0.8670237934377415,0.8670237934377415,0.8670237934377415,1],"metallicFactor":0,"roughnessFactor":0.2},"name":"Radar","emissiveFactor":[0,0,0],"extensions":{},"alphaMode":"OPAQUE","doubleSided":false},{"pbrMetallicRoughness":{"baseColorFactor":[0.8670237934377415,0.8670237934377415,0.8670237934377415,1],"metallicFactor":0,"roughnessFactor":0.2},"name":"Aiden","emissiveFactor":[0,0,0],"extensions":{},"alphaMode":"OPAQUE","doubleSided":false},{"pbrMetallicRoughness":{"baseColorFactor":[0.8670237934377415,0.8670237934377415,0.8670237934377415,1],"metallicFactor":0,"roughnessFactor":0.2},"name":"Aurora","emissiveFactor":[0,0,0],"extensions":{},"alphaMode":"OPAQUE","doubleSided":false},{"pbrMetallicRoughness":{"baseColorFactor":[0.8670237934377415,0.8670237934377415,0.8670237934377415,1],"metallicFactor":0,"roughnessFactor":0.2},"name":"Andres","emissiveFactor":[0,0,0],"extensions":{},"alphaMode":"OPAQUE","doubleSided":false},{"pbrMetallicRoughness":{"baseColorFactor":[0.8670237934377415,0.8670237934377415,0.8670237934377415,1],"metallicFactor":0,"roughnessFactor":0.2},"name":"Crazy Dream","emissiveFactor":[0,0,0],"extensions":{},"alphaMode":"OPAQUE","doubleSided":false}],"meshes":[{"primitives":[{"mode":4,"attributes":{"POSITION":1,"NORMAL":2,"TEXCOORD_0":3},"material":0,"indices":0}]},{"primitives":[{"mode":4,"attributes":{"POSITION":5,"NORMAL":6,"TEXCOORD_0":7},"material":1,"indices":4}]},{"primitives":[{"mode":4,"attributes":{"POSITION":9,"NORMAL":10,"TEXCOORD_0":11},"material":2,"indices":8}]},{"primitives":[{"mode":4,"attributes":{"POSITION":13,"NORMAL":14,"TEXCOORD_0":15},"material":3,"indices":12}]},{"primitives":[{"mode":4,"attributes":{"POSITION":17,"NORMAL":18,"TEXCOORD_0":19},"material":4,"indices":16}]},{"primitives":[{"mode":4,"attributes":{"POSITION":21,"NORMAL":22,"TEXCOORD_0":23},"material":5,"indices":20}]},{"primitives":[{"mode":4,"attributes":{"POSITION":25,"NORMAL":26,"TEXCOORD_0":27},"material":6,"indices":24}]},{"primitives":[{"mode":4,"attributes":{"POSITION":29,"NORMAL":30,"TEXCOORD_0":31},"material":7,"indices":28}]},{"primitives":[{"mode":4,"attributes":{"POSITION":33,"NORMAL":34,"TEXCOORD_0":35},"material":8,"indices":32}]},{"primitives":[{"mode":4,"attributes":{"POSITION":37,"NORMAL":38,"TEXCOORD_0":39},"material":9,"indices":36}]},{"primitives":[{"mode":4,"attributes":{"POSITION":41,"NORMAL":42,"TEXCOORD_0":43},"material":10,"indices":40}]},{"primitives":[{"mode":4,"attributes":{"POSITION":45,"NORMAL":46,"TEXCOORD_0":47},"material":11,"indices":44}]}],"accessors":[{"bufferView":0,"byteOffset":0,"componentType":5125,"count":480,"type":"SCALAR"},{"bufferView":1,"byteOffset":0,"componentType":5126,"count":178,"max":[0.9300000071525574,0.41366299986839294,0.9288179874420166],"min":[-0.9300000071525574,0.16366299986839294,-1.0861819982528687],"type":"VEC3"},{"bufferView":2,"byteOffset":0,"componentType":5126,"count":178,"type":"VEC3"},{"bufferView":3,"byteOffset":0,"componentType":5126,"count":178,"type":"VEC2"},{"bufferView":4,"byteOffset":0,"componentType":5125,"count":324,"type":"SCALAR"},{"bufferView":5,"byteOffset":0,"componentType":5126,"count":96,"max":[1.0800000429153442,0.8687419891357422,-1.0861819982528687],"min":[-1.0800000429153442,0.008741999976336956,-1.1061819791793823],"type":"VEC3"},{"bufferView":6,"byteOffset":0,"componentType":5126,"count":96,"type":"VEC3"},{"bufferView":7,"byteOffset":0,"componentType":5126,"count":96,"type":"VEC2"},{"bufferView":8,"byteOffset":0,"componentType":5125,"count":1332,"type":"SCALAR"},{"bufferView":9,"byteOffset":0,"componentType":5126,"count":458,"max":[0.9080039858818054,0.172885000705719,0.9059270024299622],"min":[-0.9080039858818054,0.00007899999764049426,0.8511480093002319],"type":"VEC3"},{"bufferView":10,"byteOffset":0,"componentType":5126,"count":458,"type":"VEC3"},{"bufferView":11,"byteOffset":0,"componentType":5126,"count":458,"type":"VEC2"},{"bufferView":12,"byteOffset":0,"componentType":5125,"count":756,"type":"SCALAR"},{"bufferView":13,"byteOffset":0,"componentType":5126,"count":348,"max":[0.8865470290184021,0.008337999694049358,-1.0879369974136353],"min":[-0.8865470290184021,0.000024000000848900527,-1.1045650243759155],"type":"VEC3"},{"bufferView":14,"byteOffset":0,"componentType":5126,"count":348,"type":"VEC3"},{"bufferView":15,"byteOffset":0,"componentType":5126,"count":348,"type":"VEC2"},{"bufferView":16,"byteOffset":0,"componentType":5125,"count":54,"type":"SCALAR"},{"bufferView":17,"byteOffset":0,"componentType":5126,"count":16,"max":[0.9076730012893677,0.45684900879859924,0.9050740003585815],"min":[-0.9028459787368774,0.3668679893016815,-1.076174020767212],"type":"VEC3"},{"bufferView":18,"byteOffset":0,"componentType":5126,"count":16,"type":"VEC3"},{"bufferView":19,"byteOffset":0,"componentType":5126,"count":16,"type":"VEC2"},{"bufferView":20,"byteOffset":0,"componentType":5125,"count":417912,"type":"SCALAR"},{"bufferView":21,"byteOffset":0,"componentType":5126,"count":77859,"max":[0.9792850017547607,0.5335260033607483,0.9867349863052368],"min":[-0.9945849776268005,0.2067510038614273,-1.0246390104293823],"type":"VEC3"},{"bufferView":22,"byteOffset":0,"componentType":5126,"count":77859,"type":"VEC3"},{"bufferView":23,"byteOffset":0,"componentType":5126,"count":77859,"type":"VEC2"},{"bufferView":24,"byteOffset":0,"componentType":5125,"count":35520,"type":"SCALAR"},{"bufferView":25,"byteOffset":0,"componentType":5126,"count":6126,"max":[0.22433200478553772,0.7386389970779419,-0.5053629875183105],"min":[-0.2266319990158081,0.4921390116214752,-0.761775016784668],"type":"VEC3"},{"bufferView":26,"byteOffset":0,"componentType":5126,"count":6126,"type":"VEC3"},{"bufferView":27,"byteOffset":0,"componentType":5126,"count":6126,"type":"VEC2"},{"bufferView":28,"byteOffset":0,"componentType":5125,"count":35520,"type":"SCALAR"},{"bufferView":29,"byteOffset":0,"componentType":5126,"count":6126,"max":[0.7207769751548767,0.7577390074729919,-0.4224900007247925],"min":[0.2701149880886078,0.49274998903274536,-0.7605599761009216],"type":"VEC3"},{"bufferView":30,"byteOffset":0,"componentType":5126,"count":6126,"type":"VEC3"},{"bufferView":31,"byteOffset":0,"componentType":5126,"count":6126,"type":"VEC2"},{"bufferView":32,"byteOffset":0,"componentType":5125,"count":35520,"type":"SCALAR"},{"bufferView":33,"byteOffset":0,"componentType":5126,"count":6126,"max":[-0.18757100403308868,0.816510021686554,-0.4733220040798187],"min":[-0.6462849974632263,0.49615201354026794,-0.7211490273475647],"type":"VEC3"},{"bufferView":34,"byteOffset":0,"componentType":5126,"count":6126,"type":"VEC3"},{"bufferView":35,"byteOffset":0,"componentType":5126,"count":6126,"type":"VEC2"},{"bufferView":36,"byteOffset":0,"componentType":5125,"count":35520,"type":"SCALAR"},{"bufferView":37,"byteOffset":0,"componentType":5126,"count":6126,"max":[0.8904790282249451,0.9044179916381836,-0.7256799936294556],"min":[-0.02290000021457672,0.4904850125312805,-1.087188959121704],"type":"VEC3"},{"bufferView":38,"byteOffset":0,"componentType":5126,"count":6126,"type":"VEC3"},{"bufferView":39,"byteOffset":0,"componentType":5126,"count":6126,"type":"VEC2"},{"bufferView":40,"byteOffset":0,"componentType":5125,"count":35520,"type":"SCALAR"},{"bufferView":41,"byteOffset":0,"componentType":5126,"count":6126,"max":[0.008066000416874886,0.8989740014076233,-0.6785680055618286],"min":[-0.9232789874076843,0.4650680124759674,-1.0944160223007202],"type":"VEC3"},{"bufferView":42,"byteOffset":0,"componentType":5126,"count":6126,"type":"VEC3"},{"bufferView":43,"byteOffset":0,"componentType":5126,"count":6126,"type":"VEC2"},{"bufferView":44,"byteOffset":0,"componentType":5125,"count":24768,"type":"SCALAR"},{"bufferView":45,"byteOffset":0,"componentType":5126,"count":4130,"max":[1.0187519788742065,0.5782520174980164,0.5476769804954529],"min":[-1.0453590154647827,0.12262000143527985,-0.45263099670410156],"type":"VEC3"},{"bufferView":46,"byteOffset":0,"componentType":5126,"count":4130,"type":"VEC3"},{"bufferView":47,"byteOffset":0,"componentType":5126,"count":4130,"type":"VEC2"}],"bufferViews":[{"buffer":0,"byteOffset":0,"byteLength":1920,"target":34963},{"buffer":0,"byteOffset":1920,"byteLength":2136,"target":34962},{"buffer":0,"byteOffset":4056,"byteLength":2136,"target":34962},{"buffer":0,"byteOffset":6192,"byteLength":1424,"target":34962},{"buffer":0,"byteOffset":7616,"byteLength":1296,"target":34963},{"buffer":0,"byteOffset":8912,"byteLength":1152,"target":34962},{"buffer":0,"byteOffset":10064,"byteLength":1152,"target":34962},{"buffer":0,"byteOffset":11216,"byteLength":768,"target":34962},{"buffer":0,"byteOffset":11984,"byteLength":5328,"target":34963},{"buffer":0,"byteOffset":17312,"byteLength":5496,"target":34962},{"buffer":0,"byteOffset":22808,"byteLength":5496,"target":34962},{"buffer":0,"byteOffset":28304,"byteLength":3664,"target":34962},{"buffer":0,"byteOffset":31968,"byteLength":3024,"target":34963},{"buffer":0,"byteOffset":34992,"byteLength":4176,"target":34962},{"buffer":0,"byteOffset":39168,"byteLength":4176,"target":34962},{"buffer":0,"byteOffset":43344,"byteLength":2784,"target":34962},{"buffer":0,"byteOffset":46128,"byteLength":216,"target":34963},{"buffer":0,"byteOffset":46344,"byteLength":192,"target":34962},{"buffer":0,"byteOffset":46536,"byteLength":192,"target":34962},{"buffer":0,"byteOffset":46728,"byteLength":128,"target":34962},{"buffer":0,"byteOffset":46856,"byteLength":1671648,"target":34963},{"buffer":0,"byteOffset":1718504,"byteLength":934308,"target":34962},{"buffer":0,"byteOffset":2652812,"byteLength":934308,"target":34962},{"buffer":0,"byteOffset":3587120,"byteLength":622872,"target":34962},{"buffer":0,"byteOffset":4209992,"byteLength":142080,"target":34963},{"buffer":0,"byteOffset":4352072,"byteLength":73512,"target":34962},{"buffer":0,"byteOffset":4425584,"byteLength":73512,"target":34962},{"buffer":0,"byteOffset":4499096,"byteLength":49008,"target":34962},{"buffer":0,"byteOffset":4548104,"byteLength":142080,"target":34963},{"buffer":0,"byteOffset":4690184,"byteLength":73512,"target":34962},{"buffer":0,"byteOffset":4763696,"byteLength":73512,"target":34962},{"buffer":0,"byteOffset":4837208,"byteLength":49008,"target":34962},{"buffer":0,"byteOffset":4886216,"byteLength":142080,"target":34963},{"buffer":0,"byteOffset":5028296,"byteLength":73512,"target":34962},{"buffer":0,"byteOffset":5101808,"byteLength":73512,"target":34962},{"buffer":0,"byteOffset":5175320,"byteLength":49008,"target":34962},{"buffer":0,"byteOffset":5224328,"byteLength":142080,"target":34963},{"buffer":0,"byteOffset":5366408,"byteLength":73512,"target":34962},{"buffer":0,"byteOffset":5439920,"byteLength":73512,"target":34962},{"buffer":0,"byteOffset":5513432,"byteLength":49008,"target":34962},{"buffer":0,"byteOffset":5562440,"byteLength":142080,"target":34963},{"buffer":0,"byteOffset":5704520,"byteLength":73512,"target":34962},{"buffer":0,"byteOffset":5778032,"byteLength":73512,"target":34962},{"buffer":0,"byteOffset":5851544,"byteLength":49008,"target":34962},{"buffer":0,"byteOffset":5900552,"byteLength":99072,"target":34963},{"buffer":0,"byteOffset":5999624,"byteLength":49560,"target":34962},{"buffer":0,"byteOffset":6049184,"byteLength":49560,"target":34962},{"buffer":0,"byteOffset":6098744,"byteLength":33040,"target":34962}],"scene":0,"scenes":[{"nodes":[0],"name":"Project Name"}],"extensionsUsed":["KHR_texture_transform"],"buffers":[{"byteLength":6131784,"uri":"ProjectName.bin"}]}