{"asset":{"version":"2.0","generator":"VECTARY"},"nodes":[{"translation":[0,0,0],"scale":[0.001,0.001,0.001],"rotation":[-0.7071067811865475,0,0,0.7071067811865476],"name":"51072_StrellaRug_Grey","mesh":0}],"materials":[{"pbrMetallicRoughness":{"baseColorFactor":[1,1,1,1],"baseColorTexture":{"index":0,"extensions":{"KHR_texture_transform":{"offset":[0,0],"scale":[2,2],"rotation":0}},"texCoord":0},"metallicRoughnessTexture":{"index":2,"extensions":{"KHR_texture_transform":{"offset":[0,0],"scale":[2,2],"rotation":0}},"texCoord":0},"metallicFactor":0,"roughnessFactor":1},"name":"Wooden floor 2","normalTexture":{"index":1,"scale":1,"extensions":{"KHR_texture_transform":{"offset":[0,0],"scale":[2,2],"rotation":0}},"texCoord":0},"emissiveFactor":[0,0,0],"extensions":{},"alphaMode":"OPAQUE","doubleSided":false}],"textures":[{"sampler":0,"source":0},{"sampler":0,"source":1},{"sampler":0,"source":2}],"images":[{"uri":"textures.jpg","mimeType":"image/jpeg"},{"uri":"floor_20_nm.jpg","mimeType":"image/jpeg"},{"uri":"metallicTexturefloor_20_rough.jpg","mimeType":"image/jpeg"}],"samplers":[{"wrapS":10497,"wrapT":10497}],"meshes":[{"primitives":[{"mode":4,"attributes":{"POSITION":1,"NORMAL":2,"TEXCOORD_0":3},"material":0,"indices":0}]}],"accessors":[{"bufferView":0,"byteOffset":0,"componentType":5125,"count":306432,"type":"SCALAR"},{"bufferView":1,"byteOffset":0,"componentType":5126,"count":79234,"max":[1219.2001953125,1524.0001220703125,7.373600006103516],"min":[-1219.2001953125,-1524.0001220703125,0.2093999981880188],"type":"VEC3"},{"bufferView":2,"byteOffset":0,"componentType":5126,"count":79234,"type":"VEC3"},{"bufferView":3,"byteOffset":0,"componentType":5126,"count":79234,"type":"VEC2"}],"bufferViews":[{"buffer":0,"byteOffset":0,"byteLength":1225728,"target":34963},{"buffer":0,"byteOffset":1225728,"byteLength":950808,"target":34962},{"buffer":0,"byteOffset":2176536,"byteLength":950808,"target":34962},{"buffer":0,"byteOffset":3127344,"byteLength":633872,"target":34962}],"scene":0,"scenes":[{"nodes":[0],"name":"Project Name"}],"extensionsUsed":["KHR_texture_transform"],"buffers":[{"byteLength":3761216,"uri":"ProjectName.bin"}]}