{"asset":{"version":"2.0","generator":"VECTARY"},"nodes":[{"translation":[0,0,0],"scale":[0.001,0.001,0.001],"rotation":[-0.7071067811865475,0,0,0.7071067811865476],"name":"uploads_files_3446111_Fan","children":[1,2,4,5,6,7,8,9,10,11,12]},{"translation":[0,0,0],"scale":[1,1,1],"rotation":[0.7071067811865475,0,0,0.7071067811865476],"name":"Plane_Plane.001","mesh":0},{"translation":[0,0,0],"scale":[1,1,1],"rotation":[0,0,0,1],"name":"Circle","children":[3]},{"translation":[0,0,0],"scale":[1,1,1],"rotation":[0.7071067811865475,0,0,0.7071067811865476],"name":"Buffer Object","mesh":1},{"translation":[0,0,0],"scale":[1,1,1],"rotation":[0.7071067811865475,0,0,0.7071067811865476],"name":"Plane.001_Plane.002","mesh":2},{"translation":[0,0,0],"scale":[1,1,1],"rotation":[0.7071067811865475,0,0,0.7071067811865476],"name":"Sphere","mesh":3},{"translation":[0,0,0],"scale":[1,1,1],"rotation":[0.7071067811865475,0,0,0.7071067811865476],"name":"Plane.002_Plane.003","mesh":4},{"translation":[0,0,0],"scale":[1,1,1],"rotation":[0.7071067811865475,0,0,0.7071067811865476],"name":"Plane.003_Plane.004","mesh":5},{"translation":[0,0,0],"scale":[1,1,1],"rotation":[0.7071067811865475,0,0,0.7071067811865476],"name":"Sphere.001","mesh":6},{"translation":[0,0,0],"scale":[1,1,1],"rotation":[0.7071067811865475,0,0,0.7071067811865476],"name":"Plane.004_Plane.005","mesh":7},{"translation":[0,0,0],"scale":[1,1,1],"rotation":[0.7071067811865475,0,0,0.7071067811865476],"name":"Plane.005_Plane.006","mesh":8},{"translation":[0,0,0],"scale":[1,1,1],"rotation":[0.7071067811865475,0,0,0.7071067811865476],"name":"Sphere.002","mesh":9},{"translation":[0,0,0],"scale":[1,1,1],"rotation":[0.7071067811865475,0,0,0.7071067811865476],"name":"Circle.001","mesh":10}],"materials":[{"pbrMetallicRoughness":{"baseColorFactor":[0.267358060183772,0.1904628788224093,0.08464151072542946,1],"metallicFactor":0,"roughnessFactor":0.2},"name":"Aura","emissiveFactor":[0,0,0],"extensions":{},"alphaMode":"OPAQUE","doubleSided":false},{"pbrMetallicRoughness":{"baseColorFactor":[0.267358060183772,0.1904628788224093,0.08464151072542946,1],"metallicFactor":1,"roughnessFactor":0.5},"name":"Bronze Satin","emissiveFactor":[0,0,0],"extensions":{},"alphaMode":"OPAQUE","doubleSided":false},{"pbrMetallicRoughness":{"baseColorFactor":[0,0,0,1],"metallicFactor":0,"roughnessFactor":0.2},"name":"Hidden Paradise","emissiveFactor":[0,0,0],"extensions":{},"alphaMode":"OPAQUE","doubleSided":false},{"pbrMetallicRoughness":{"baseColorFactor":[0.8670237934377415,0.8670237934377415,0.8670237934377415,1],"metallicFactor":0,"roughnessFactor":0.2},"name":"Beluga","emissiveFactor":[0,0,0],"extensions":{},"alphaMode":"OPAQUE","doubleSided":false},{"pbrMetallicRoughness":{"baseColorFactor":[0.267358060183772,0.1904628788224093,0.08464151072542946,1],"metallicFactor":0,"roughnessFactor":0.2},"name":"Afternoon","emissiveFactor":[0,0,0],"extensions":{},"alphaMode":"OPAQUE","doubleSided":false},{"pbrMetallicRoughness":{"baseColorFactor":[0,0,0,1],"metallicFactor":0,"roughnessFactor":0.2},"name":"Indica","emissiveFactor":[0,0,0],"extensions":{},"alphaMode":"OPAQUE","doubleSided":false},{"pbrMetallicRoughness":{"baseColorFactor":[0.8670237934377415,0.8670237934377415,0.8670237934377415,1],"metallicFactor":0,"roughnessFactor":0.2},"name":"Retro Vibe","emissiveFactor":[0,0,0],"extensions":{},"alphaMode":"OPAQUE","doubleSided":false},{"pbrMetallicRoughness":{"baseColorFactor":[0.267358060183772,0.1904628788224093,0.08464151072542946,1],"metallicFactor":0,"roughnessFactor":0.2},"name":"Instant Glory","emissiveFactor":[0,0,0],"extensions":{},"alphaMode":"OPAQUE","doubleSided":false},{"pbrMetallicRoughness":{"baseColorFactor":[0,0,0,1],"metallicFactor":0,"roughnessFactor":0.2},"name":"Camouflage","emissiveFactor":[0,0,0],"extensions":{},"alphaMode":"OPAQUE","doubleSided":false},{"pbrMetallicRoughness":{"baseColorFactor":[0.8670237934377415,0.8670237934377415,0.8670237934377415,1],"metallicFactor":0,"roughnessFactor":0.2},"name":"Turbo","emissiveFactor":[0,0,0],"extensions":{},"alphaMode":"OPAQUE","doubleSided":false},{"pbrMetallicRoughness":{"baseColorFactor":[0.267358060183772,0.1904628788224093,0.08464151072542946,1],"metallicFactor":1,"roughnessFactor":0.5},"name":"Bronze Satin 1","emissiveFactor":[0,0,0],"extensions":{},"alphaMode":"OPAQUE","doubleSided":false}],"meshes":[{"primitives":[{"mode":4,"attributes":{"POSITION":1,"NORMAL":2,"TEXCOORD_0":3},"material":0,"indices":0}]},{"primitives":[{"mode":4,"attributes":{"POSITION":5,"NORMAL":6,"TEXCOORD_0":7},"material":1,"indices":4}]},{"primitives":[{"mode":4,"attributes":{"POSITION":9,"NORMAL":10,"TEXCOORD_0":11},"material":2,"indices":8}]},{"primitives":[{"mode":4,"attributes":{"POSITION":13,"NORMAL":14,"TEXCOORD_0":15},"material":3,"indices":12}]},{"primitives":[{"mode":4,"attributes":{"POSITION":17,"NORMAL":18,"TEXCOORD_0":19},"material":4,"indices":16}]},{"primitives":[{"mode":4,"attributes":{"POSITION":21,"NORMAL":22,"TEXCOORD_0":23},"material":5,"indices":20}]},{"primitives":[{"mode":4,"attributes":{"POSITION":25,"NORMAL":26,"TEXCOORD_0":27},"material":6,"indices":24}]},{"primitives":[{"mode":4,"attributes":{"POSITION":29,"NORMAL":30,"TEXCOORD_0":31},"material":7,"indices":28}]},{"primitives":[{"mode":4,"attributes":{"POSITION":33,"NORMAL":34,"TEXCOORD_0":35},"material":8,"indices":32}]},{"primitives":[{"mode":4,"attributes":{"POSITION":37,"NORMAL":38,"TEXCOORD_0":39},"material":9,"indices":36}]},{"primitives":[{"mode":4,"attributes":{"POSITION":41,"NORMAL":42,"TEXCOORD_0":43},"material":10,"indices":40}]}],"accessors":[{"bufferView":0,"byteOffset":0,"componentType":5125,"count":12096,"type":"SCALAR"},{"bufferView":1,"byteOffset":0,"componentType":5126,"count":2018,"max":[8.362565994262695,0.30615800619125366,3.147075891494751],"min":[1.2626310586929321,-0.0631449967622757,-0.08094099909067154],"type":"VEC3"},{"bufferView":2,"byteOffset":0,"componentType":5126,"count":2018,"type":"VEC3"},{"bufferView":3,"byteOffset":0,"componentType":5126,"count":2018,"type":"VEC2"},{"bufferView":4,"byteOffset":0,"componentType":5125,"count":68352,"type":"SCALAR"},{"bufferView":5,"byteOffset":0,"componentType":5126,"count":11457,"max":[1.2618509531021118,0.4608289897441864,1.2618509531021118],"min":[-1.2618509531021118,0.0005310000269673765,-1.2618509531021118],"type":"VEC3"},{"bufferView":6,"byteOffset":0,"componentType":5126,"count":11457,"type":"VEC3"},{"bufferView":7,"byteOffset":0,"componentType":5126,"count":11457,"type":"VEC2"},{"bufferView":8,"byteOffset":0,"componentType":5125,"count":132,"type":"SCALAR"},{"bufferView":9,"byteOffset":0,"componentType":5126,"count":52,"max":[1.9215869903564453,0.42814600467681885,0.7566210031509399],"min":[0.6477559804916382,0.24222099781036377,0.0027020000852644444],"type":"VEC3"},{"bufferView":10,"byteOffset":0,"componentType":5126,"count":52,"type":"VEC3"},{"bufferView":11,"byteOffset":0,"componentType":5126,"count":52,"type":"VEC2"},{"bufferView":12,"byteOffset":0,"componentType":5125,"count":3168,"type":"SCALAR"},{"bufferView":13,"byteOffset":0,"componentType":5126,"count":690,"max":[1.8294509649276733,0.2368209958076477,0.6761429905891418],"min":[1.3983819484710693,0.2122039943933487,0.33424699306488037],"type":"VEC3"},{"bufferView":14,"byteOffset":0,"componentType":5126,"count":690,"type":"VEC3"},{"bufferView":15,"byteOffset":0,"componentType":5126,"count":690,"type":"VEC2"},{"bufferView":16,"byteOffset":0,"componentType":5125,"count":12096,"type":"SCALAR"},{"bufferView":17,"byteOffset":0,"componentType":5126,"count":2018,"max":[-0.1782429963350296,0.30615800619125366,-1.10508394241333],"min":[-4.452353000640869,-0.0631449967622757,-8.011364936828613],"type":"VEC3"},{"bufferView":18,"byteOffset":0,"componentType":5126,"count":2018,"type":"VEC3"},{"bufferView":19,"byteOffset":0,"componentType":5126,"count":2018,"type":"VEC2"},{"bufferView":20,"byteOffset":0,"componentType":5125,"count":132,"type":"SCALAR"},{"bufferView":21,"byteOffset":0,"componentType":5126,"count":52,"max":[-0.0826530009508133,0.42814600467681885,-0.5861499905586243],"min":[-1.00444495677948,0.24222099781036377,-1.8625880479812622],"type":"VEC3"},{"bufferView":22,"byteOffset":0,"componentType":5126,"count":52,"type":"VEC3"},{"bufferView":23,"byteOffset":0,"componentType":5126,"count":52,"type":"VEC2"},{"bufferView":24,"byteOffset":0,"componentType":5125,"count":3168,"type":"SCALAR"},{"bufferView":25,"byteOffset":0,"componentType":5126,"count":690,"max":[-0.5736389756202698,0.2368209958076477,-1.3282140493392944],"min":[-0.9162049889564514,0.2122039943933487,-1.760815978050232],"type":"VEC3"},{"bufferView":26,"byteOffset":0,"componentType":5126,"count":690,"type":"VEC3"},{"bufferView":27,"byteOffset":0,"componentType":5126,"count":690,"type":"VEC2"},{"bufferView":28,"byteOffset":0,"componentType":5125,"count":12096,"type":"SCALAR"},{"bufferView":29,"byteOffset":0,"componentType":5126,"count":2018,"max":[-0.6255030035972595,0.30615800619125366,6.856694221496582],"min":[-6.378712177276611,-0.0631449967622757,0.7414799928665161],"type":"VEC3"},{"bufferView":30,"byteOffset":0,"componentType":5126,"count":2018,"type":"VEC3"},{"bufferView":31,"byteOffset":0,"componentType":5126,"count":2018,"type":"VEC2"},{"bufferView":32,"byteOffset":0,"componentType":5125,"count":132,"type":"SCALAR"},{"bufferView":33,"byteOffset":0,"componentType":5126,"count":52,"max":[-0.3528729975223541,0.42814600467681885,1.5649499893188477],"min":[-1.4960230588912964,0.24222099781036377,0.37404701113700867],"type":"VEC3"},{"bufferView":34,"byteOffset":0,"componentType":5126,"count":52,"type":"VEC3"},{"bufferView":35,"byteOffset":0,"componentType":5126,"count":52,"type":"VEC2"},{"bufferView":36,"byteOffset":0,"componentType":5125,"count":3168,"type":"SCALAR"},{"bufferView":37,"byteOffset":0,"componentType":5126,"count":690,"max":[-0.9921320080757141,0.2368209958076477,1.462203025817871],"min":[-1.3909989595413208,0.2122039943933487,1.0481840372085571],"type":"VEC3"},{"bufferView":38,"byteOffset":0,"componentType":5126,"count":690,"type":"VEC3"},{"bufferView":39,"byteOffset":0,"componentType":5126,"count":690,"type":"VEC2"},{"bufferView":40,"byteOffset":0,"componentType":5125,"count":15360,"type":"SCALAR"},{"bufferView":41,"byteOffset":0,"componentType":5126,"count":2816,"max":[0.5398100018501282,4.392792224884033,0.5398100018501282],"min":[-0.5398100018501282,0.35938000679016113,-0.5398100018501282],"type":"VEC3"},{"bufferView":42,"byteOffset":0,"componentType":5126,"count":2816,"type":"VEC3"},{"bufferView":43,"byteOffset":0,"componentType":5126,"count":2816,"type":"VEC2"}],"bufferViews":[{"buffer":0,"byteOffset":0,"byteLength":48384,"target":34963},{"buffer":0,"byteOffset":48384,"byteLength":24216,"target":34962},{"buffer":0,"byteOffset":72600,"byteLength":24216,"target":34962},{"buffer":0,"byteOffset":96816,"byteLength":16144,"target":34962},{"buffer":0,"byteOffset":112960,"byteLength":273408,"target":34963},{"buffer":0,"byteOffset":386368,"byteLength":137484,"target":34962},{"buffer":0,"byteOffset":523852,"byteLength":137484,"target":34962},{"buffer":0,"byteOffset":661336,"byteLength":91656,"target":34962},{"buffer":0,"byteOffset":752992,"byteLength":528,"target":34963},{"buffer":0,"byteOffset":753520,"byteLength":624,"target":34962},{"buffer":0,"byteOffset":754144,"byteLength":624,"target":34962},{"buffer":0,"byteOffset":754768,"byteLength":416,"target":34962},{"buffer":0,"byteOffset":755184,"byteLength":12672,"target":34963},{"buffer":0,"byteOffset":767856,"byteLength":8280,"target":34962},{"buffer":0,"byteOffset":776136,"byteLength":8280,"target":34962},{"buffer":0,"byteOffset":784416,"byteLength":5520,"target":34962},{"buffer":0,"byteOffset":789936,"byteLength":48384,"target":34963},{"buffer":0,"byteOffset":838320,"byteLength":24216,"target":34962},{"buffer":0,"byteOffset":862536,"byteLength":24216,"target":34962},{"buffer":0,"byteOffset":886752,"byteLength":16144,"target":34962},{"buffer":0,"byteOffset":902896,"byteLength":528,"target":34963},{"buffer":0,"byteOffset":903424,"byteLength":624,"target":34962},{"buffer":0,"byteOffset":904048,"byteLength":624,"target":34962},{"buffer":0,"byteOffset":904672,"byteLength":416,"target":34962},{"buffer":0,"byteOffset":905088,"byteLength":12672,"target":34963},{"buffer":0,"byteOffset":917760,"byteLength":8280,"target":34962},{"buffer":0,"byteOffset":926040,"byteLength":8280,"target":34962},{"buffer":0,"byteOffset":934320,"byteLength":5520,"target":34962},{"buffer":0,"byteOffset":939840,"byteLength":48384,"target":34963},{"buffer":0,"byteOffset":988224,"byteLength":24216,"target":34962},{"buffer":0,"byteOffset":1012440,"byteLength":24216,"target":34962},{"buffer":0,"byteOffset":1036656,"byteLength":16144,"target":34962},{"buffer":0,"byteOffset":1052800,"byteLength":528,"target":34963},{"buffer":0,"byteOffset":1053328,"byteLength":624,"target":34962},{"buffer":0,"byteOffset":1053952,"byteLength":624,"target":34962},{"buffer":0,"byteOffset":1054576,"byteLength":416,"target":34962},{"buffer":0,"byteOffset":1054992,"byteLength":12672,"target":34963},{"buffer":0,"byteOffset":1067664,"byteLength":8280,"target":34962},{"buffer":0,"byteOffset":1075944,"byteLength":8280,"target":34962},{"buffer":0,"byteOffset":1084224,"byteLength":5520,"target":34962},{"buffer":0,"byteOffset":1089744,"byteLength":61440,"target":34963},{"buffer":0,"byteOffset":1151184,"byteLength":33792,"target":34962},{"buffer":0,"byteOffset":1184976,"byteLength":33792,"target":34962},{"buffer":0,"byteOffset":1218768,"byteLength":22528,"target":34962}],"scene":0,"scenes":[{"nodes":[0],"name":"Project Name"}],"extensionsUsed":["KHR_texture_transform"],"buffers":[{"byteLength":1241296,"uri":"ProjectName.bin"}]}