{"asset":{"version":"2.0","generator":"VECTARY"},"nodes":[{"translation":[0,0.002187768463024197,0.00010634521852552581],"scale":[0.006009187180328731,0.006009187180328731,0.006009187180328731],"rotation":[-0.7071067811865475,0,0,0.7071067811865476],"name":"uploads_files_3652318_Bed+01","children":[1,2,3,4,5,6,8,10]},{"translation":[0,0,0],"scale":[1,1,1],"rotation":[0.7071067811865475,0,0,0.7071067811865476],"name":"pillows.005_Mesh.143","mesh":0},{"translation":[0,0,0],"scale":[1,1,1],"rotation":[0.7071067811865475,0,0,0.7071067811865476],"name":"pillows.006_Mesh.139","mesh":1},{"translation":[0,0,0],"scale":[1,1,1],"rotation":[0.7071067811865475,0,0,0.7071067811865476],"name":"pillows__blanket_bed_1.004","mesh":2},{"translation":[0,0,0],"scale":[1,1,1],"rotation":[0.7071067811865475,0,0,0.7071067811865476],"name":"legs__Cube.033","mesh":3},{"translation":[0,0,0],"scale":[1,1,1],"rotation":[0.7071067811865475,0,0,0.7071067811865476],"name":"blanket_2_.001_postava_bed_b.002","mesh":4},{"translation":[0,0,0],"scale":[1,1,1],"rotation":[0,0,0,1],"name":"blanket_1__blanket_bed_1.005","children":[7]},{"translation":[0,0,0],"scale":[1,1,1],"rotation":[0.7071067811865475,0,0,0.7071067811865476],"name":"Buffer Object","mesh":5},{"translation":[0,0,0],"scale":[1,1,1],"rotation":[0,0,0,1],"name":"bed_2__Cube.031","children":[9]},{"translation":[0,0,0],"scale":[1,1,1],"rotation":[0.7071067811865475,0,0,0.7071067811865476],"name":"Buffer Object","mesh":6},{"translation":[0,0,0],"scale":[1,1,1],"rotation":[0,0,0,1],"name":"bed_1__Cube.032","children":[11]},{"translation":[0,0,0],"scale":[1,1,1],"rotation":[0.7071067811865475,0,0,0.7071067811865476],"name":"Buffer Object","mesh":7}],"materials":[{"pbrMetallicRoughness":{"baseColorFactor":[1,1,1,1],"metallicFactor":0,"roughnessFactor":0.2},"name":"Maple View","emissiveFactor":[0,0,0],"extensions":{},"alphaMode":"OPAQUE","doubleSided":false},{"pbrMetallicRoughness":{"baseColorFactor":[1,1,1,1],"metallicFactor":0,"roughnessFactor":0.2},"name":"Aria","emissiveFactor":[0,0,0],"extensions":{},"alphaMode":"OPAQUE","doubleSided":false},{"pbrMetallicRoughness":{"baseColorFactor":[0.7969165429079781,0.7154654323350483,0.4995052766030301,1],"metallicFactor":0,"roughnessFactor":0.2},"name":"Little Valley","emissiveFactor":[0,0,0],"extensions":{},"alphaMode":"OPAQUE","doubleSided":false},{"pbrMetallicRoughness":{"baseColorFactor":[0,0,0,1],"metallicFactor":0,"roughnessFactor":0.2},"name":"Eagle Eye","emissiveFactor":[0,0,0],"extensions":{},"alphaMode":"OPAQUE","doubleSided":false},{"pbrMetallicRoughness":{"baseColorFactor":[1,1,1,1],"baseColorTexture":{"index":0,"extensions":{"KHR_texture_transform":{"offset":[0,0],"scale":[1,1],"rotation":0}},"texCoord":0},"metallicRoughnessTexture":{"index":2,"extensions":{"KHR_texture_transform":{"offset":[0,0],"scale":[1,1],"rotation":0}},"texCoord":0},"metallicFactor":0,"roughnessFactor":1},"name":"Fabric 3","normalTexture":{"index":1,"scale":1,"extensions":{"KHR_texture_transform":{"offset":[0,0],"scale":[1,1],"rotation":0}},"texCoord":0},"emissiveFactor":[0,0,0],"extensions":{},"alphaMode":"OPAQUE","doubleSided":false},{"pbrMetallicRoughness":{"baseColorFactor":[1,1,1,1],"baseColorTexture":{"index":3,"extensions":{"KHR_texture_transform":{"offset":[0,0],"scale":[1,1],"rotation":0}},"texCoord":0},"metallicRoughnessTexture":{"index":5,"extensions":{"KHR_texture_transform":{"offset":[0,0],"scale":[1,1],"rotation":0}},"texCoord":0},"metallicFactor":0,"roughnessFactor":1},"name":"Fabric","normalTexture":{"index":4,"scale":1,"extensions":{"KHR_texture_transform":{"offset":[0,0],"scale":[1,1],"rotation":0}},"texCoord":0},"emissiveFactor":[0,0,0],"extensions":{},"alphaMode":"OPAQUE","doubleSided":false},{"pbrMetallicRoughness":{"baseColorFactor":[1,1,1,1],"baseColorTexture":{"index":6,"extensions":{"KHR_texture_transform":{"offset":[0,0],"scale":[1,1],"rotation":0}},"texCoord":0},"metallicRoughnessTexture":{"index":8,"extensions":{"KHR_texture_transform":{"offset":[0,0],"scale":[1,1],"rotation":0}},"texCoord":0},"metallicFactor":0,"roughnessFactor":1},"name":"Fabric 1","normalTexture":{"index":7,"scale":1,"extensions":{"KHR_texture_transform":{"offset":[0,0],"scale":[1,1],"rotation":0}},"texCoord":0},"emissiveFactor":[0,0,0],"extensions":{},"alphaMode":"OPAQUE","doubleSided":false},{"pbrMetallicRoughness":{"baseColorFactor":[1,1,1,1],"baseColorTexture":{"index":9,"extensions":{"KHR_texture_transform":{"offset":[0,0],"scale":[1,1],"rotation":0}},"texCoord":0},"metallicRoughnessTexture":{"index":11,"extensions":{"KHR_texture_transform":{"offset":[0,0],"scale":[1,1],"rotation":0}},"texCoord":0},"metallicFactor":0,"roughnessFactor":1},"name":"Fabric 4","normalTexture":{"index":10,"scale":1,"extensions":{"KHR_texture_transform":{"offset":[0,0],"scale":[1,1],"rotation":0}},"texCoord":0},"emissiveFactor":[0,0,0],"extensions":{},"alphaMode":"OPAQUE","doubleSided":false}],"meshes":[{"primitives":[{"mode":4,"attributes":{"POSITION":1,"NORMAL":2,"TEXCOORD_0":3},"material":0,"indices":0}]},{"primitives":[{"mode":4,"attributes":{"POSITION":5,"NORMAL":6,"TEXCOORD_0":7},"material":1,"indices":4}]},{"primitives":[{"mode":4,"attributes":{"POSITION":9,"NORMAL":10,"TEXCOORD_0":11},"material":2,"indices":8}]},{"primitives":[{"mode":4,"attributes":{"POSITION":13,"NORMAL":14,"TEXCOORD_0":15},"material":3,"indices":12}]},{"primitives":[{"mode":4,"attributes":{"POSITION":17,"NORMAL":18,"TEXCOORD_0":19},"material":4,"indices":16}]},{"primitives":[{"mode":4,"attributes":{"POSITION":21,"NORMAL":22,"TEXCOORD_0":23},"material":5,"indices":20}]},{"primitives":[{"mode":4,"attributes":{"POSITION":25,"NORMAL":26,"TEXCOORD_0":27},"material":6,"indices":24}]},{"primitives":[{"mode":4,"attributes":{"POSITION":29,"NORMAL":30,"TEXCOORD_0":31},"material":7,"indices":28}]}],"accessors":[{"bufferView":0,"byteOffset":0,"componentType":5125,"count":138204,"type":"SCALAR"},{"bufferView":1,"byteOffset":0,"componentType":5126,"count":24058,"max":[0.8971250057220459,0.8409010171890259,-0.7679240107536316],"min":[0.21414899826049805,0.47909900546073914,-0.9846529960632324],"type":"VEC3"},{"bufferView":2,"byteOffset":0,"componentType":5126,"count":24058,"type":"VEC3"},{"bufferView":3,"byteOffset":0,"componentType":5126,"count":24058,"type":"VEC2"},{"bufferView":4,"byteOffset":0,"componentType":5125,"count":138204,"type":"SCALAR"},{"bufferView":5,"byteOffset":0,"componentType":5126,"count":24058,"max":[1.547605037689209,0.8394320011138916,-0.7558040022850037],"min":[0.8646299839019775,0.47762998938560486,-0.9725319743156433],"type":"VEC3"},{"bufferView":6,"byteOffset":0,"componentType":5126,"count":24058,"type":"VEC3"},{"bufferView":7,"byteOffset":0,"componentType":5126,"count":24058,"type":"VEC2"},{"bufferView":8,"byteOffset":0,"componentType":5125,"count":70704,"type":"SCALAR"},{"bufferView":9,"byteOffset":0,"componentType":5126,"count":12128,"max":[1.5042200088500977,0.6704339981079102,-0.34968701004981995],"min":[0.19627900421619415,0.4895099997520447,-0.8214790225028992],"type":"VEC3"},{"bufferView":10,"byteOffset":0,"componentType":5126,"count":12128,"type":"VEC3"},{"bufferView":11,"byteOffset":0,"componentType":5126,"count":12128,"type":"VEC2"},{"bufferView":12,"byteOffset":0,"componentType":5125,"count":5136,"type":"SCALAR"},{"bufferView":13,"byteOffset":0,"componentType":5126,"count":1296,"max":[1.536931037902832,0.07468099892139435,0.8837249875068665],"min":[0.23395900428295135,-0.0009820000268518925,-0.8837249875068665],"type":"VEC3"},{"bufferView":14,"byteOffset":0,"componentType":5126,"count":1296,"type":"VEC3"},{"bufferView":15,"byteOffset":0,"componentType":5126,"count":1296,"type":"VEC2"},{"bufferView":16,"byteOffset":0,"componentType":5125,"count":196110,"type":"SCALAR"},{"bufferView":17,"byteOffset":0,"componentType":5126,"count":33221,"max":[1.601925015449524,0.5288779735565186,0.9604229927062988],"min":[0.162555992603302,0.19947999715805054,-1.0252280235290527],"type":"VEC3"},{"bufferView":18,"byteOffset":0,"componentType":5126,"count":33221,"type":"VEC3"},{"bufferView":19,"byteOffset":0,"componentType":5126,"count":33221,"type":"VEC2"},{"bufferView":20,"byteOffset":0,"componentType":5125,"count":293172,"type":"SCALAR"},{"bufferView":21,"byteOffset":0,"componentType":5126,"count":49718,"max":[1.7683080434799194,0.585739016532898,0.8120899796485901],"min":[0.058063000440597534,0.30770498514175415,-0.2218720018863678],"type":"VEC3"},{"bufferView":22,"byteOffset":0,"componentType":5126,"count":49718,"type":"VEC3"},{"bufferView":23,"byteOffset":0,"componentType":5126,"count":49718,"type":"VEC2"},{"bufferView":24,"byteOffset":0,"componentType":5125,"count":7908,"type":"SCALAR"},{"bufferView":25,"byteOffset":0,"componentType":5126,"count":1812,"max":[1.63544499874115,0.3493089973926544,1],"min":[0.1354449987411499,0.04930900037288666,-0.998649001121521],"type":"VEC3"},{"bufferView":26,"byteOffset":0,"componentType":5126,"count":1812,"type":"VEC3"},{"bufferView":27,"byteOffset":0,"componentType":5126,"count":1812,"type":"VEC2"},{"bufferView":28,"byteOffset":0,"componentType":5125,"count":99072,"type":"SCALAR"},{"bufferView":29,"byteOffset":0,"componentType":5126,"count":46403,"max":[1.638092041015625,1.0029499530792236,-0.9954749941825867],"min":[0.1378829926252365,0.05217399820685387,-1.0977749824523926],"type":"VEC3"},{"bufferView":30,"byteOffset":0,"componentType":5126,"count":46403,"type":"VEC3"},{"bufferView":31,"byteOffset":0,"componentType":5126,"count":46403,"type":"VEC2"}],"bufferViews":[{"buffer":0,"byteOffset":0,"byteLength":552816,"target":34963},{"buffer":0,"byteOffset":552816,"byteLength":288696,"target":34962},{"buffer":0,"byteOffset":841512,"byteLength":288696,"target":34962},{"buffer":0,"byteOffset":1130208,"byteLength":192464,"target":34962},{"buffer":0,"byteOffset":1322672,"byteLength":552816,"target":34963},{"buffer":0,"byteOffset":1875488,"byteLength":288696,"target":34962},{"buffer":0,"byteOffset":2164184,"byteLength":288696,"target":34962},{"buffer":0,"byteOffset":2452880,"byteLength":192464,"target":34962},{"buffer":0,"byteOffset":2645344,"byteLength":282816,"target":34963},{"buffer":0,"byteOffset":2928160,"byteLength":145536,"target":34962},{"buffer":0,"byteOffset":3073696,"byteLength":145536,"target":34962},{"buffer":0,"byteOffset":3219232,"byteLength":97024,"target":34962},{"buffer":0,"byteOffset":3316256,"byteLength":20544,"target":34963},{"buffer":0,"byteOffset":3336800,"byteLength":15552,"target":34962},{"buffer":0,"byteOffset":3352352,"byteLength":15552,"target":34962},{"buffer":0,"byteOffset":3367904,"byteLength":10368,"target":34962},{"buffer":0,"byteOffset":3378272,"byteLength":784440,"target":34963},{"buffer":0,"byteOffset":4162712,"byteLength":398652,"target":34962},{"buffer":0,"byteOffset":4561364,"byteLength":398652,"target":34962},{"buffer":0,"byteOffset":4960016,"byteLength":265768,"target":34962},{"buffer":0,"byteOffset":5225784,"byteLength":1172688,"target":34963},{"buffer":0,"byteOffset":6398472,"byteLength":596616,"target":34962},{"buffer":0,"byteOffset":6995088,"byteLength":596616,"target":34962},{"buffer":0,"byteOffset":7591704,"byteLength":397744,"target":34962},{"buffer":0,"byteOffset":7989448,"byteLength":31632,"target":34963},{"buffer":0,"byteOffset":8021080,"byteLength":21744,"target":34962},{"buffer":0,"byteOffset":8042824,"byteLength":21744,"target":34962},{"buffer":0,"byteOffset":8064568,"byteLength":14496,"target":34962},{"buffer":0,"byteOffset":8079064,"byteLength":396288,"target":34963},{"buffer":0,"byteOffset":8475352,"byteLength":556836,"target":34962},{"buffer":0,"byteOffset":9032188,"byteLength":556836,"target":34962},{"buffer":0,"byteOffset":9589024,"byteLength":371224,"target":34962}],"textures":[{"sampler":0,"source":0},{"sampler":0,"source":1},{"sampler":0,"source":2},{"sampler":0,"source":3},{"sampler":0,"source":4},{"sampler":0,"source":5},{"sampler":0,"source":6},{"sampler":0,"source":7},{"sampler":0,"source":8},{"sampler":0,"source":9},{"sampler":0,"source":10},{"sampler":0,"source":11}],"images":[{"uri":"Fabric_009_Color.jpg","mimeType":"image/jpeg"},{"uri":"Fabric_009_Normal.jpg","mimeType":"image/jpeg"},{"uri":"metallicTexture&Fabric_009_Rough.jpg","mimeType":"image/jpeg"},{"uri":"Fabric_009_Color_1.jpg","mimeType":"image/jpeg"},{"uri":"Fabric_009_Normal_1.jpg","mimeType":"image/jpeg"},{"uri":"metallicTexture&Fabric_009_Rough_1.jpg","mimeType":"image/jpeg"},{"uri":"Fabric_Fabric_006_Color.jpg","mimeType":"image/jpeg"},{"uri":"Fabric_Fabric_006_NormalMap.jpg","mimeType":"image/jpeg"},{"uri":"metallicTexture&Fabric_Fabric_006_Roughness.jpg","mimeType":"image/jpeg"},{"uri":"Fabric_Fabric_007_Color.jpg","mimeType":"image/jpeg"},{"uri":"Fabric_Fabric_007_NormalMap.jpg","mimeType":"image/jpeg"},{"uri":"metallicTexture&Fabric_Fabric_007_Roughness.jpg","mimeType":"image/jpeg"}],"samplers":[{"wrapS":10497,"wrapT":10497}],"scene":0,"scenes":[{"nodes":[0],"name":"Project Name"}],"extensionsUsed":["KHR_texture_transform"],"buffers":[{"byteLength":9960248,"uri":"ProjectName.bin"}]}