{"asset":{"version":"2.0","generator":"VECTARY"},"nodes":[{"translation":[0,0.000630259691102836,1.1102230246251566e-19],"scale":[0.001,0.001,0.001],"rotation":[-0.7071067811865475,0,0,0.7071067811865476],"name":"uploads_files_4125011_Bed_01","children":[1,3]},{"translation":[0,0,0],"scale":[1,1,1],"rotation":[0,0,0,1],"name":"Cube","children":[2]},{"translation":[0,0,0],"scale":[1,1,1],"rotation":[0.7071067811865475,0,0,0.7071067811865476],"name":"Buffer Object","mesh":0},{"translation":[0,0,0],"scale":[1,1,1],"rotation":[0,0,0,1],"name":"Cube.002","children":[4]},{"translation":[0,0,0],"scale":[1,1,1],"rotation":[0.7071067811865475,0,0,0.7071067811865476],"name":"Buffer Object","mesh":1}],"materials":[{"pbrMetallicRoughness":{"baseColorFactor":[1,1,1,1],"baseColorTexture":{"index":0,"extensions":{"KHR_texture_transform":{"offset":[0,0],"scale":[1,1],"rotation":0}},"texCoord":0},"metallicRoughnessTexture":{"index":2,"extensions":{"KHR_texture_transform":{"offset":[0,0],"scale":[1,1],"rotation":0}},"texCoord":0},"metallicFactor":0,"roughnessFactor":1},"name":"Wood","normalTexture":{"index":1,"scale":1,"extensions":{"KHR_texture_transform":{"offset":[0,0],"scale":[1,1],"rotation":0}},"texCoord":0},"emissiveFactor":[0,0,0],"extensions":{},"alphaMode":"OPAQUE","doubleSided":false},{"pbrMetallicRoughness":{"baseColorFactor":[1,1,1,1],"baseColorTexture":{"index":3,"extensions":{"KHR_texture_transform":{"offset":[0,0],"scale":[1,1],"rotation":0}},"texCoord":0},"metallicRoughnessTexture":{"index":5,"extensions":{"KHR_texture_transform":{"offset":[0,0],"scale":[1,1],"rotation":0}},"texCoord":0},"metallicFactor":0,"roughnessFactor":1},"name":"Fabric","normalTexture":{"index":4,"scale":1,"extensions":{"KHR_texture_transform":{"offset":[0,0],"scale":[1,1],"rotation":0}},"texCoord":0},"emissiveFactor":[0,0,0],"extensions":{},"alphaMode":"OPAQUE","doubleSided":false}],"textures":[{"sampler":0,"source":0},{"sampler":0,"source":1},{"sampler":0,"source":2},{"sampler":0,"source":3},{"sampler":0,"source":4},{"sampler":0,"source":5}],"images":[{"uri":"Wood_012_Color.jpg","mimeType":"image/jpeg"},{"uri":"Wood_012_NormalMap.jpg","mimeType":"image/jpeg"},{"uri":"metallicTexture&Wood_012_Roughness.jpg","mimeType":"image/jpeg"},{"uri":"Fabric_021_base.jpg","mimeType":"image/jpeg"},{"uri":"Fabric_021_Normal.jpg","mimeType":"image/jpeg"},{"uri":"metallicTexture&Fabric_021_Rough.jpg","mimeType":"image/jpeg"}],"samplers":[{"wrapS":10497,"wrapT":10497}],"meshes":[{"primitives":[{"mode":4,"attributes":{"POSITION":1,"NORMAL":2,"TEXCOORD_0":3},"material":0,"indices":0}]},{"primitives":[{"mode":4,"attributes":{"POSITION":5,"NORMAL":6,"TEXCOORD_0":7},"material":1,"indices":4}]}],"accessors":[{"bufferView":0,"byteOffset":0,"componentType":5125,"count":51894,"type":"SCALAR"},{"bufferView":1,"byteOffset":0,"componentType":5126,"count":11456,"max":[8.068449020385742,4.937111854553223,3.6250369548797607],"min":[-0.10581400245428085,-0.000014999999621068127,-4.245141983032227],"type":"VEC3"},{"bufferView":2,"byteOffset":0,"componentType":5126,"count":11456,"type":"VEC3"},{"bufferView":3,"byteOffset":0,"componentType":5126,"count":11456,"type":"VEC2"},{"bufferView":4,"byteOffset":0,"componentType":5125,"count":66708,"type":"SCALAR"},{"bufferView":5,"byteOffset":0,"componentType":5126,"count":15202,"max":[8.057867050170898,2.0815019607543945,2.945478916168213],"min":[0.17726300656795502,0.5765029788017273,-3.5065739154815674],"type":"VEC3"},{"bufferView":6,"byteOffset":0,"componentType":5126,"count":15202,"type":"VEC3"},{"bufferView":7,"byteOffset":0,"componentType":5126,"count":15202,"type":"VEC2"}],"bufferViews":[{"buffer":0,"byteOffset":0,"byteLength":207576,"target":34963},{"buffer":0,"byteOffset":207576,"byteLength":137472,"target":34962},{"buffer":0,"byteOffset":345048,"byteLength":137472,"target":34962},{"buffer":0,"byteOffset":482520,"byteLength":91648,"target":34962},{"buffer":0,"byteOffset":574168,"byteLength":266832,"target":34963},{"buffer":0,"byteOffset":841000,"byteLength":182424,"target":34962},{"buffer":0,"byteOffset":1023424,"byteLength":182424,"target":34962},{"buffer":0,"byteOffset":1205848,"byteLength":121616,"target":34962}],"scene":0,"scenes":[{"nodes":[0],"name":"Project Name"}],"extensionsUsed":["KHR_texture_transform"],"buffers":[{"byteLength":1327464,"uri":"ProjectName.bin"}]}