{"asset":{"version":"2.0","generator":"VECTARY"},"nodes":[{"translation":[0,0.0026832676434424114,-0.00027363989864497663],"scale":[0.001,0.001,0.001],"rotation":[-0.7071067811865475,0,0,0.7071067811865476],"name":"uploads_files_67386_carpet","children":[1,2,3]},{"translation":[0,0,0],"scale":[1,1,1],"rotation":[0.7071067811865475,0,0,0.7071067811865476],"name":"Plane.002_Plane.003","mesh":0},{"translation":[0,0,0],"scale":[1,1,1],"rotation":[0.7071067811865475,0,0,0.7071067811865476],"name":"Plane.001_Plane.002","mesh":1},{"translation":[0,0,0],"scale":[4.132141660384431,4.132141660384431,4.132141660384431],"rotation":[0.7071067811865475,0,0,0.7071067811865476],"name":"Plane","mesh":2}],"materials":[{"pbrMetallicRoughness":{"baseColorFactor":[1,1,1,1],"baseColorTexture":{"index":0,"extensions":{"KHR_texture_transform":{"offset":[0,0],"scale":[3,3],"rotation":0}},"texCoord":0},"metallicRoughnessTexture":{"index":2,"extensions":{"KHR_texture_transform":{"offset":[0,0],"scale":[3,3],"rotation":0}},"texCoord":0},"metallicFactor":0,"roughnessFactor":1},"name":"Wooden floor 1","normalTexture":{"index":1,"scale":1,"extensions":{"KHR_texture_transform":{"offset":[0,0],"scale":[3,3],"rotation":0}},"texCoord":0},"emissiveFactor":[0,0,0],"extensions":{},"alphaMode":"OPAQUE","doubleSided":false},{"pbrMetallicRoughness":{"baseColorFactor":[1,1,1,1],"baseColorTexture":{"index":3,"extensions":{"KHR_texture_transform":{"offset":[0,0],"scale":[2,2],"rotation":0}},"texCoord":0},"metallicRoughnessTexture":{"index":5,"extensions":{"KHR_texture_transform":{"offset":[0,0],"scale":[2,2],"rotation":0}},"texCoord":0},"metallicFactor":0,"roughnessFactor":1},"name":"Wooden floor","normalTexture":{"index":4,"scale":1,"extensions":{"KHR_texture_transform":{"offset":[0,0],"scale":[2,2],"rotation":0}},"texCoord":0},"emissiveFactor":[0,0,0],"extensions":{},"alphaMode":"OPAQUE","doubleSided":false},{"pbrMetallicRoughness":{"baseColorFactor":[1,1,1,1],"baseColorTexture":{"index":6,"extensions":{"KHR_texture_transform":{"offset":[0,0],"scale":[3,3],"rotation":0}},"texCoord":0},"metallicFactor":0,"roughnessFactor":0.29},"name":"Speckled Plastic","emissiveFactor":[0,0,0],"extensions":{},"alphaMode":"OPAQUE","doubleSided":false}],"textures":[{"sampler":0,"source":0},{"sampler":0,"source":1},{"sampler":0,"source":2},{"sampler":0,"source":3},{"sampler":0,"source":4},{"sampler":0,"source":5},{"sampler":0,"source":6}],"images":[{"uri":"substance_diffuse.jpg","mimeType":"image/jpeg"},{"uri":"substance_normal_1.jpg","mimeType":"image/jpeg"},{"uri":"metallicTexture&substance_roughness.jpg","mimeType":"image/jpeg"},{"uri":"substance_diffuse_1.jpg","mimeType":"image/jpeg"},{"uri":"substance_normal.jpg","mimeType":"image/jpeg"},{"uri":"metallicTexture&substance_roughness_1.jpg","mimeType":"image/jpeg"},{"uri":"industrial_plastic_6_diffuse.jpg","mimeType":"image/jpeg"}],"samplers":[{"wrapS":10497,"wrapT":10497}],"meshes":[{"primitives":[{"mode":4,"attributes":{"POSITION":1,"NORMAL":2,"TEXCOORD_0":3},"material":0,"indices":0}]},{"primitives":[{"mode":4,"attributes":{"POSITION":5,"NORMAL":6,"TEXCOORD_0":7},"material":1,"indices":4}]},{"primitives":[{"mode":4,"attributes":{"POSITION":9,"NORMAL":10,"TEXCOORD_0":11},"material":2,"indices":8}]}],"accessors":[{"bufferView":0,"byteOffset":0,"componentType":5125,"count":6,"type":"SCALAR"},{"bufferView":1,"byteOffset":0,"componentType":5126,"count":4,"max":[3.889707088470459,2.941046953201294,3.889707088470459],"min":[1.8714170455932617,1.132681965827942,1.8714170455932617],"type":"VEC3"},{"bufferView":2,"byteOffset":0,"componentType":5126,"count":4,"type":"VEC3"},{"bufferView":3,"byteOffset":0,"componentType":5126,"count":4,"type":"VEC2"},{"bufferView":4,"byteOffset":0,"componentType":5125,"count":6,"type":"SCALAR"},{"bufferView":5,"byteOffset":0,"componentType":5126,"count":4,"max":[-2.15065598487854,2.941046953201294,3.659152030944824],"min":[-4.090658187866211,1.132681965827942,1.5779340267181396],"type":"VEC3"},{"bufferView":6,"byteOffset":0,"componentType":5126,"count":4,"type":"VEC3"},{"bufferView":7,"byteOffset":0,"componentType":5126,"count":4,"type":"VEC2"},{"bufferView":8,"byteOffset":0,"componentType":5125,"count":6,"type":"SCALAR"},{"bufferView":9,"byteOffset":0,"componentType":5126,"count":4,"max":[1,0,1],"min":[-1,0,-1],"type":"VEC3"},{"bufferView":10,"byteOffset":0,"componentType":5126,"count":4,"type":"VEC3"},{"bufferView":11,"byteOffset":0,"componentType":5126,"count":4,"type":"VEC2"}],"bufferViews":[{"buffer":0,"byteOffset":0,"byteLength":24,"target":34963},{"buffer":0,"byteOffset":24,"byteLength":48,"target":34962},{"buffer":0,"byteOffset":72,"byteLength":48,"target":34962},{"buffer":0,"byteOffset":120,"byteLength":32,"target":34962},{"buffer":0,"byteOffset":152,"byteLength":24,"target":34963},{"buffer":0,"byteOffset":176,"byteLength":48,"target":34962},{"buffer":0,"byteOffset":224,"byteLength":48,"target":34962},{"buffer":0,"byteOffset":272,"byteLength":32,"target":34962},{"buffer":0,"byteOffset":304,"byteLength":24,"target":34963},{"buffer":0,"byteOffset":328,"byteLength":48,"target":34962},{"buffer":0,"byteOffset":376,"byteLength":48,"target":34962},{"buffer":0,"byteOffset":424,"byteLength":32,"target":34962}],"scene":0,"scenes":[{"nodes":[0],"name":"Project Name"}],"extensionsUsed":["KHR_texture_transform"],"buffers":[{"byteLength":456,"uri":"ProjectName.bin"}]}