{"asset":{"version":"2.0","generator":"VECTARY"},"nodes":[{"translation":[0,0,0],"scale":[0.001,0.001,0.001],"rotation":[-0.7071067811865475,0,0,0.7071067811865476],"name":"Table","mesh":0}],"materials":[{"pbrMetallicRoughness":{"baseColorFactor":[0.08690125178766034,0.01991783843878572,0.0000569217657121931,1],"metallicFactor":0,"roughnessFactor":0.2},"name":"Nautico","emissiveFactor":[0,0,0],"extensions":{},"alphaMode":"OPAQUE","doubleSided":false}],"meshes":[{"primitives":[{"mode":4,"attributes":{"POSITION":1,"NORMAL":2,"TEXCOORD_0":3},"material":0,"indices":0}]}],"accessors":[{"bufferView":0,"byteOffset":0,"componentType":5125,"count":780,"type":"SCALAR"},{"bufferView":1,"byteOffset":0,"componentType":5126,"count":312,"max":[90.98680114746094,50.06399917602539,82.18080139160156],"min":[-90.98680114746094,-50.06399917602539,-0.002099999925121665],"type":"VEC3"},{"bufferView":2,"byteOffset":0,"componentType":5126,"count":312,"type":"VEC3"},{"bufferView":3,"byteOffset":0,"componentType":5126,"count":312,"type":"VEC2"}],"bufferViews":[{"buffer":0,"byteOffset":0,"byteLength":3120,"target":34963},{"buffer":0,"byteOffset":3120,"byteLength":3744,"target":34962},{"buffer":0,"byteOffset":6864,"byteLength":3744,"target":34962},{"buffer":0,"byteOffset":10608,"byteLength":2496,"target":34962}],"scene":0,"scenes":[{"nodes":[0],"name":"Project Name"}],"extensionsUsed":["KHR_texture_transform"],"buffers":[{"byteLength":13104,"uri":"ProjectName.bin"}]}