{"asset":{"version":"2.0","generator":"VECTARY"},"nodes":[{"translation":[0,0.04189874182074343,7.105427357601002e-18],"scale":[0.001,0.001,0.001],"rotation":[-0.7071067811865475,0,0,0.7071067811865476],"name":"uploads_files_3158526_Small_Square_Window-Final","children":[1,2,3,4,5,6]},{"translation":[0,0,0],"scale":[1,1,1],"rotation":[0.7071067811865475,0,0,0.7071067811865476],"name":"Glass_Square","mesh":0},{"translation":[0,0,0],"scale":[1,1,1],"rotation":[0.7071067811865475,0,0,0.7071067811865476],"name":"Glass_Square","mesh":1},{"translation":[0,0,0],"scale":[1,1,1],"rotation":[0.7071067811865475,0,0,0.7071067811865476],"name":"Glass_Square","mesh":2},{"translation":[0,0,0],"scale":[1,1,1],"rotation":[0.7071067811865475,0,0,0.7071067811865476],"name":"Glass_Square","mesh":3},{"translation":[0,0,0],"scale":[1,1,1],"rotation":[0.7071067811865475,0,0,0.7071067811865476],"name":"External_Frame_Square","mesh":4},{"translation":[0,0,0],"scale":[1,1,1],"rotation":[0.7071067811865475,0,0,0.7071067811865476],"name":"Internal_Frame_Square","mesh":5}],"materials":[{"pbrMetallicRoughness":{"baseColorFactor":[1,1,1,1],"metallicFactor":0,"roughnessFactor":1},"name":"Milky 1.5","normalTexture":{"index":0,"scale":0.1,"extensions":{"KHR_texture_transform":{"offset":[0,0],"scale":[5,5],"rotation":0}},"texCoord":0},"emissiveFactor":[0.2,0.2,0.2],"extensions":{"KHR_materials_transmission":{"transmissionFactor":1},"KHR_materials_ior":{"ior":1.5},"KHR_materials_volume":{"thicknessFactor":0.01}},"alphaMode":"OPAQUE","doubleSided":false},{"pbrMetallicRoughness":{"baseColorFactor":[1,1,1,1],"metallicFactor":0,"roughnessFactor":1},"name":"Milky 1.5 4","normalTexture":{"index":1,"scale":0.1,"extensions":{"KHR_texture_transform":{"offset":[0,0],"scale":[5,5],"rotation":0}},"texCoord":0},"emissiveFactor":[0.2,0.2,0.2],"extensions":{"KHR_materials_transmission":{"transmissionFactor":1},"KHR_materials_ior":{"ior":1.5},"KHR_materials_volume":{"thicknessFactor":0.01}},"alphaMode":"OPAQUE","doubleSided":false},{"pbrMetallicRoughness":{"baseColorFactor":[1,1,1,1],"metallicFactor":0,"roughnessFactor":1},"name":"Milky 1.5 1","normalTexture":{"index":2,"scale":0.1,"extensions":{"KHR_texture_transform":{"offset":[0,0],"scale":[5,5],"rotation":0}},"texCoord":0},"emissiveFactor":[0.2,0.2,0.2],"extensions":{"KHR_materials_transmission":{"transmissionFactor":1},"KHR_materials_ior":{"ior":1.5},"KHR_materials_volume":{"thicknessFactor":0.01}},"alphaMode":"OPAQUE","doubleSided":false},{"pbrMetallicRoughness":{"baseColorFactor":[1,1,1,1],"metallicFactor":0,"roughnessFactor":1},"name":"Milky 1.5 2","normalTexture":{"index":3,"scale":0.1,"extensions":{"KHR_texture_transform":{"offset":[0,0],"scale":[5,5],"rotation":0}},"texCoord":0},"emissiveFactor":[0.2,0.2,0.2],"extensions":{"KHR_materials_transmission":{"transmissionFactor":1},"KHR_materials_ior":{"ior":1.5},"KHR_materials_volume":{"thicknessFactor":0.01}},"alphaMode":"OPAQUE","doubleSided":false},{"pbrMetallicRoughness":{"baseColorFactor":[1,1,1,1],"baseColorTexture":{"index":4,"extensions":{"KHR_texture_transform":{"offset":[0,0],"scale":[1,1],"rotation":0}},"texCoord":0},"metallicRoughnessTexture":{"index":6,"extensions":{"KHR_texture_transform":{"offset":[0,0],"scale":[1,1],"rotation":0}},"texCoord":0},"metallicFactor":0,"roughnessFactor":1},"name":"Wood","normalTexture":{"index":5,"scale":1,"extensions":{"KHR_texture_transform":{"offset":[0,0],"scale":[1,1],"rotation":0}},"texCoord":0},"emissiveFactor":[0,0,0],"extensions":{},"alphaMode":"OPAQUE","doubleSided":false},{"pbrMetallicRoughness":{"baseColorFactor":[0.48776520187781053,0.17343903633213503,0.028991186547107816,1],"metallicFactor":1,"roughnessFactor":0.05},"name":"Copper Glossy","emissiveFactor":[0,0,0],"extensions":{},"alphaMode":"OPAQUE","doubleSided":false}],"textures":[{"sampler":0,"source":0},{"sampler":0,"source":1},{"sampler":0,"source":2},{"sampler":0,"source":3},{"sampler":0,"source":4},{"sampler":0,"source":5},{"sampler":0,"source":6}],"images":[{"uri":"2k-carpaint-normal.jpg","mimeType":"image/jpeg"},{"uri":"2k-carpaint-normal_1.jpg","mimeType":"image/jpeg"},{"uri":"2k-carpaint-normal_2.jpg","mimeType":"image/jpeg"},{"uri":"2k-carpaint-normal_3.jpg","mimeType":"image/jpeg"},{"uri":"Wood_012_Color.jpg","mimeType":"image/jpeg"},{"uri":"Wood_012_NormalMap.jpg","mimeType":"image/jpeg"},{"uri":"metallicTexture&Wood_012_Roughness.jpg","mimeType":"image/jpeg"}],"samplers":[{"wrapS":10497,"wrapT":10497}],"meshes":[{"primitives":[{"mode":4,"attributes":{"POSITION":1,"NORMAL":2,"TEXCOORD_0":3},"material":0,"indices":0}]},{"primitives":[{"mode":4,"attributes":{"POSITION":5,"NORMAL":6,"TEXCOORD_0":7},"material":1,"indices":4}]},{"primitives":[{"mode":4,"attributes":{"POSITION":9,"NORMAL":10,"TEXCOORD_0":11},"material":2,"indices":8}]},{"primitives":[{"mode":4,"attributes":{"POSITION":13,"NORMAL":14,"TEXCOORD_0":15},"material":3,"indices":12}]},{"primitives":[{"mode":4,"attributes":{"POSITION":17,"NORMAL":18,"TEXCOORD_0":19},"material":4,"indices":16}]},{"primitives":[{"mode":4,"attributes":{"POSITION":21,"NORMAL":22,"TEXCOORD_0":23},"material":5,"indices":20}]}],"accessors":[{"bufferView":0,"byteOffset":0,"componentType":5125,"count":36,"type":"SCALAR"},{"bufferView":1,"byteOffset":0,"componentType":5126,"count":24,"max":[26.25,-1,0.25],"min":[2.5,-27,-0.25],"type":"VEC3"},{"bufferView":2,"byteOffset":0,"componentType":5126,"count":24,"type":"VEC3"},{"bufferView":3,"byteOffset":0,"componentType":5126,"count":24,"type":"VEC2"},{"bufferView":4,"byteOffset":0,"componentType":5125,"count":36,"type":"SCALAR"},{"bufferView":5,"byteOffset":0,"componentType":5126,"count":24,"max":[-2.5,-1,0.25],"min":[-26.25,-27,-0.25],"type":"VEC3"},{"bufferView":6,"byteOffset":0,"componentType":5126,"count":24,"type":"VEC3"},{"bufferView":7,"byteOffset":0,"componentType":5126,"count":24,"type":"VEC2"},{"bufferView":8,"byteOffset":0,"componentType":5125,"count":36,"type":"SCALAR"},{"bufferView":9,"byteOffset":0,"componentType":5126,"count":24,"max":[26.25,27,0.25],"min":[2.5,1,-0.25],"type":"VEC3"},{"bufferView":10,"byteOffset":0,"componentType":5126,"count":24,"type":"VEC3"},{"bufferView":11,"byteOffset":0,"componentType":5126,"count":24,"type":"VEC2"},{"bufferView":12,"byteOffset":0,"componentType":5125,"count":36,"type":"SCALAR"},{"bufferView":13,"byteOffset":0,"componentType":5126,"count":24,"max":[-2.5,27,0.25],"min":[-26.25,1,-0.25],"type":"VEC3"},{"bufferView":14,"byteOffset":0,"componentType":5126,"count":24,"type":"VEC3"},{"bufferView":15,"byteOffset":0,"componentType":5126,"count":24,"type":"VEC2"},{"bufferView":16,"byteOffset":0,"componentType":5125,"count":8280,"type":"SCALAR"},{"bufferView":17,"byteOffset":0,"componentType":5126,"count":2829,"max":[37.25,39,4],"min":[-37.25,-38,-4],"type":"VEC3"},{"bufferView":18,"byteOffset":0,"componentType":5126,"count":2829,"type":"VEC3"},{"bufferView":19,"byteOffset":0,"componentType":5126,"count":2829,"type":"VEC2"},{"bufferView":20,"byteOffset":0,"componentType":5125,"count":10482,"type":"SCALAR"},{"bufferView":21,"byteOffset":0,"componentType":5126,"count":4150,"max":[31.25,32,2.5],"min":[-31.25,-32,-2.5],"type":"VEC3"},{"bufferView":22,"byteOffset":0,"componentType":5126,"count":4150,"type":"VEC3"},{"bufferView":23,"byteOffset":0,"componentType":5126,"count":4150,"type":"VEC2"}],"bufferViews":[{"buffer":0,"byteOffset":0,"byteLength":144,"target":34963},{"buffer":0,"byteOffset":144,"byteLength":288,"target":34962},{"buffer":0,"byteOffset":432,"byteLength":288,"target":34962},{"buffer":0,"byteOffset":720,"byteLength":192,"target":34962},{"buffer":0,"byteOffset":912,"byteLength":144,"target":34963},{"buffer":0,"byteOffset":1056,"byteLength":288,"target":34962},{"buffer":0,"byteOffset":1344,"byteLength":288,"target":34962},{"buffer":0,"byteOffset":1632,"byteLength":192,"target":34962},{"buffer":0,"byteOffset":1824,"byteLength":144,"target":34963},{"buffer":0,"byteOffset":1968,"byteLength":288,"target":34962},{"buffer":0,"byteOffset":2256,"byteLength":288,"target":34962},{"buffer":0,"byteOffset":2544,"byteLength":192,"target":34962},{"buffer":0,"byteOffset":2736,"byteLength":144,"target":34963},{"buffer":0,"byteOffset":2880,"byteLength":288,"target":34962},{"buffer":0,"byteOffset":3168,"byteLength":288,"target":34962},{"buffer":0,"byteOffset":3456,"byteLength":192,"target":34962},{"buffer":0,"byteOffset":3648,"byteLength":33120,"target":34963},{"buffer":0,"byteOffset":36768,"byteLength":33948,"target":34962},{"buffer":0,"byteOffset":70716,"byteLength":33948,"target":34962},{"buffer":0,"byteOffset":104664,"byteLength":22632,"target":34962},{"buffer":0,"byteOffset":127296,"byteLength":41928,"target":34963},{"buffer":0,"byteOffset":169224,"byteLength":49800,"target":34962},{"buffer":0,"byteOffset":219024,"byteLength":49800,"target":34962},{"buffer":0,"byteOffset":268824,"byteLength":33200,"target":34962}],"scene":0,"scenes":[{"nodes":[0],"name":"Project Name"}],"extensionsUsed":["KHR_texture_transform","KHR_materials_ior","KHR_materials_volume","KHR_materials_transmission"],"buffers":[{"byteLength":302024,"uri":"ProjectName.bin"}]}